# MagicaVoxel @ Ephtracy

# group
o 

# material
mtllib car_red.mtl
usemtl palette

# normals
vn -1 0 0
vn 1 0 0
vn 0 0 1
vn 0 0 -1
vn 0 -1 0
vn 0 1 0

# texcoords
vt 0.169922 0.5
vt 0.173828 0.5
vt 0.177734 0.5
vt 0.181641 0.5
vt 0.185547 0.5

# verts
v -0.5 0.4 0.3
v -0.5 0.4 0.1
v -0.5 0.5 0.3
v -0.5 0.5 0.1
v -0.4 0 0.8
v -0.4 0 0.5
v -0.4 0 -0.5
v -0.4 0 -0.8
v -0.4 0.1 1
v -0.4 0.1 0.8
v -0.4 0.1 0.7
v -0.4 0.1 0.6
v -0.4 0.1 0.5
v -0.4 0.1 -0.5
v -0.4 0.1 -0.6
v -0.4 0.1 -0.7
v -0.4 0.1 -0.8
v -0.4 0.1 -1
v -0.4 0.2 1
v -0.4 0.2 0.8
v -0.4 0.2 0.7
v -0.4 0.2 0.6
v -0.4 0.2 0.5
v -0.4 0.2 -0.5
v -0.4 0.2 -0.6
v -0.4 0.2 -0.7
v -0.4 0.2 -0.8
v -0.4 0.2 -1
v -0.4 0.3 1
v -0.4 0.3 0.9
v -0.4 0.3 0.8
v -0.4 0.3 0.5
v -0.4 0.3 -0.5
v -0.4 0.3 -0.8
v -0.4 0.3 -1
v -0.4 0.4 1
v -0.4 0.4 0.9
v -0.4 0.4 0.3
v -0.4 0.4 0.1
v -0.4 0.5 1
v -0.4 0.5 0.3
v -0.4 0.5 0.1
v -0.4 0.5 -1
v -0.3 0.5 0.4
v -0.3 0.5 0.3
v -0.3 0.5 -0.5
v -0.3 0.5 -0.6
v -0.3 0.5 -0.7
v -0.3 0.5 -0.8
v -0.3 0.7 0.3
v -0.3 0.7 -0.5
v -0.3 0.7 -0.6
v -0.3 0.7 -0.7
v -0.3 0.8 0.4
v -0.3 0.8 -0.8
v 0.3 0 0.8
v 0.3 0 0.5
v 0.3 0 -0.5
v 0.3 0 -0.8
v 0.3 0.1 0.8
v 0.3 0.1 0.5
v 0.3 0.1 -0.5
v 0.3 0.1 -0.8
v -0.3 0 0.8
v -0.3 0 0.5
v -0.3 0 -0.5
v -0.3 0 -0.8
v -0.3 0.1 0.8
v -0.3 0.1 0.5
v -0.3 0.1 -0.5
v -0.3 0.1 -0.8
v 0.3 0.5 0.4
v 0.3 0.5 0.3
v 0.3 0.5 -0.5
v 0.3 0.5 -0.6
v 0.3 0.5 -0.7
v 0.3 0.5 -0.8
v 0.3 0.7 0.3
v 0.3 0.7 -0.5
v 0.3 0.7 -0.6
v 0.3 0.7 -0.7
v 0.3 0.8 0.4
v 0.3 0.8 -0.8
v 0.4 0 0.8
v 0.4 0 0.5
v 0.4 0 -0.5
v 0.4 0 -0.8
v 0.4 0.1 1
v 0.4 0.1 0.8
v 0.4 0.1 0.7
v 0.4 0.1 0.6
v 0.4 0.1 0.5
v 0.4 0.1 -0.5
v 0.4 0.1 -0.6
v 0.4 0.1 -0.7
v 0.4 0.1 -0.8
v 0.4 0.1 -1
v 0.4 0.2 1
v 0.4 0.2 0.8
v 0.4 0.2 0.7
v 0.4 0.2 0.6
v 0.4 0.2 0.5
v 0.4 0.2 -0.5
v 0.4 0.2 -0.6
v 0.4 0.2 -0.7
v 0.4 0.2 -0.8
v 0.4 0.2 -1
v 0.4 0.3 1
v 0.4 0.3 0.9
v 0.4 0.3 0.8
v 0.4 0.3 0.5
v 0.4 0.3 -0.5
v 0.4 0.3 -0.8
v 0.4 0.3 -1
v 0.4 0.4 1
v 0.4 0.4 0.9
v 0.4 0.4 0.3
v 0.4 0.4 0.1
v 0.4 0.5 1
v 0.4 0.5 0.3
v 0.4 0.5 0.1
v 0.4 0.5 -1
v 0.5 0.4 0.3
v 0.5 0.4 0.1
v 0.5 0.5 0.3
v 0.5 0.5 0.1
v -0.4 0.1 1
v -0.4 0.2 1
v -0.4 0.3 1
v -0.4 0.4 1
v -0.4 0.5 1
v -0.3 0.3 1
v -0.3 0.4 1
v -0.2 0.4 1
v -0.2 0.5 1
v 0.2 0.4 1
v 0.2 0.5 1
v 0.3 0.3 1
v 0.3 0.4 1
v 0.4 0.1 1
v 0.4 0.2 1
v 0.4 0.3 1
v 0.4 0.4 1
v 0.4 0.5 1
v -0.4 0 0.8
v -0.4 0.1 0.8
v -0.3 0 0.8
v -0.3 0.1 0.8
v 0.3 0 0.8
v 0.3 0.1 0.8
v 0.4 0 0.8
v 0.4 0.1 0.8
v -0.3 0.5 0.4
v -0.3 0.8 0.4
v -0.2 0.5 0.4
v -0.2 0.7 0.4
v 0.2 0.5 0.4
v 0.2 0.7 0.4
v 0.3 0.5 0.4
v 0.3 0.8 0.4
v -0.5 0.4 0.3
v -0.5 0.5 0.3
v -0.4 0.4 0.3
v -0.4 0.5 0.3
v 0.4 0.4 0.3
v 0.4 0.5 0.3
v 0.5 0.4 0.3
v 0.5 0.5 0.3
v -0.4 0 -0.5
v -0.4 0.1 -0.5
v -0.3 0 -0.5
v -0.3 0.1 -0.5
v 0.3 0 -0.5
v 0.3 0.1 -0.5
v 0.4 0 -0.5
v 0.4 0.1 -0.5
v -0.4 0 0.5
v -0.4 0.1 0.5
v -0.3 0 0.5
v -0.3 0.1 0.5
v 0.3 0 0.5
v 0.3 0.1 0.5
v 0.4 0 0.5
v 0.4 0.1 0.5
v -0.5 0.4 0.1
v -0.5 0.5 0.1
v -0.4 0.4 0.1
v -0.4 0.5 0.1
v 0.4 0.4 0.1
v 0.4 0.5 0.1
v 0.5 0.4 0.1
v 0.5 0.5 0.1
v -0.4 0 -0.8
v -0.4 0.1 -0.8
v -0.3 0 -0.8
v -0.3 0.1 -0.8
v -0.3 0.5 -0.8
v -0.3 0.8 -0.8
v -0.2 0.5 -0.8
v 0.2 0.5 -0.8
v 0.3 0 -0.8
v 0.3 0.1 -0.8
v 0.3 0.5 -0.8
v 0.3 0.8 -0.8
v 0.4 0 -0.8
v 0.4 0.1 -0.8
v -0.4 0.1 -1
v -0.4 0.2 -1
v -0.4 0.3 -1
v -0.4 0.5 -1
v -0.2 0.4 -1
v -0.2 0.5 -1
v 0.2 0.4 -1
v 0.2 0.5 -1
v 0.4 0.1 -1
v 0.4 0.2 -1
v 0.4 0.3 -1
v 0.4 0.5 -1
v -0.4 0 0.8
v -0.3 0 0.8
v 0.3 0 0.8
v 0.4 0 0.8
v -0.4 0 0.5
v -0.3 0 0.5
v 0.3 0 0.5
v 0.4 0 0.5
v -0.4 0 -0.5
v -0.3 0 -0.5
v 0.3 0 -0.5
v 0.4 0 -0.5
v -0.4 0 -0.8
v -0.3 0 -0.8
v 0.3 0 -0.8
v 0.4 0 -0.8
v -0.4 0.1 1
v 0.4 0.1 1
v -0.4 0.1 0.8
v -0.3 0.1 0.8
v 0.3 0.1 0.8
v 0.4 0.1 0.8
v -0.4 0.1 0.5
v -0.3 0.1 0.5
v 0.3 0.1 0.5
v 0.4 0.1 0.5
v -0.4 0.1 -0.5
v -0.3 0.1 -0.5
v 0.3 0.1 -0.5
v 0.4 0.1 -0.5
v -0.4 0.1 -0.8
v -0.3 0.1 -0.8
v 0.3 0.1 -0.8
v 0.4 0.1 -0.8
v -0.4 0.1 -1
v 0.4 0.1 -1
v -0.5 0.4 0.3
v -0.4 0.4 0.3
v 0.4 0.4 0.3
v 0.5 0.4 0.3
v -0.5 0.4 0.1
v -0.4 0.4 0.1
v 0.4 0.4 0.1
v 0.5 0.4 0.1
v -0.4 0.5 1
v -0.2 0.5 1
v 0.2 0.5 1
v 0.4 0.5 1
v -0.3 0.5 0.4
v -0.2 0.5 0.4
v 0.2 0.5 0.4
v 0.3 0.5 0.4
v -0.5 0.5 0.3
v -0.4 0.5 0.3
v -0.3 0.5 0.3
v 0.3 0.5 0.3
v 0.4 0.5 0.3
v 0.5 0.5 0.3
v -0.5 0.5 0.1
v -0.4 0.5 0.1
v 0.4 0.5 0.1
v 0.5 0.5 0.1
v -0.3 0.5 -0.5
v 0.3 0.5 -0.5
v -0.3 0.5 -0.6
v 0.3 0.5 -0.6
v -0.3 0.5 -0.7
v 0.3 0.5 -0.7
v -0.3 0.5 -0.8
v -0.2 0.5 -0.8
v 0.2 0.5 -0.8
v 0.3 0.5 -0.8
v -0.4 0.5 -1
v -0.2 0.5 -1
v 0.2 0.5 -1
v 0.4 0.5 -1
v -0.3 0.8 0.4
v 0.3 0.8 0.4
v -0.3 0.8 -0.8
v 0.3 0.8 -0.8

# faces
f 3/2/1 2/2/1 1/2/1
f 4/2/1 2/2/1 3/2/1
f 10/5/1 6/5/1 5/5/1
f 11/5/1 6/5/1 10/5/1
f 12/5/1 6/5/1 11/5/1
f 13/5/1 6/5/1 12/5/1
f 14/5/1 8/5/1 7/5/1
f 15/5/1 8/5/1 14/5/1
f 16/5/1 8/5/1 15/5/1
f 17/5/1 8/5/1 16/5/1
f 19/4/1 10/4/1 9/4/1
f 20/5/1 11/5/1 10/5/1
f 20/4/1 10/4/1 19/4/1
f 21/4/1 12/4/1 11/4/1
f 21/5/1 11/5/1 20/5/1
f 22/5/1 13/5/1 12/5/1
f 22/4/1 12/4/1 21/4/1
f 23/4/1 14/4/1 13/4/1
f 23/5/1 13/5/1 22/5/1
f 24/5/1 15/5/1 14/5/1
f 24/4/1 14/4/1 23/4/1
f 25/4/1 16/4/1 15/4/1
f 25/5/1 15/5/1 24/5/1
f 26/5/1 17/5/1 16/5/1
f 26/4/1 16/4/1 25/4/1
f 27/4/1 18/4/1 17/4/1
f 27/5/1 17/5/1 26/5/1
f 28/4/1 18/4/1 27/4/1
f 29/2/1 20/2/1 19/2/1
f 30/2/1 20/2/1 29/2/1
f 31/5/1 21/5/1 20/5/1
f 31/2/1 20/2/1 30/2/1
f 31/5/1 22/5/1 21/5/1
f 31/5/1 23/5/1 22/5/1
f 32/2/1 24/2/1 23/2/1
f 32/5/1 23/5/1 31/5/1
f 33/5/1 26/5/1 25/5/1
f 33/2/1 24/2/1 32/2/1
f 33/5/1 25/5/1 24/5/1
f 33/5/1 27/5/1 26/5/1
f 34/2/1 28/2/1 27/2/1
f 34/5/1 27/5/1 33/5/1
f 35/2/1 28/2/1 34/2/1
f 36/1/1 30/1/1 29/1/1
f 37/3/1 32/3/1 31/3/1
f 37/1/1 30/1/1 36/1/1
f 37/3/1 33/3/1 32/3/1
f 37/3/1 35/3/1 34/3/1
f 37/3/1 34/3/1 33/3/1
f 37/3/1 31/3/1 30/3/1
f 38/3/1 35/3/1 37/3/1
f 39/3/1 35/3/1 38/3/1
f 40/3/1 37/3/1 36/3/1
f 40/3/1 38/3/1 37/3/1
f 41/3/1 38/3/1 40/3/1
f 42/3/1 35/3/1 39/3/1
f 43/3/1 35/3/1 42/3/1
f 50/4/1 45/4/1 44/4/1
f 50/5/1 46/5/1 45/5/1
f 51/4/1 47/4/1 46/4/1
f 51/5/1 46/5/1 50/5/1
f 52/5/1 48/5/1 47/5/1
f 52/4/1 47/4/1 51/4/1
f 53/4/1 49/4/1 48/4/1
f 53/5/1 48/5/1 52/5/1
f 54/4/1 52/4/1 51/4/1
f 54/4/1 51/4/1 50/4/1
f 54/4/1 53/4/1 52/4/1
f 54/4/1 50/4/1 44/4/1
f 55/4/1 49/4/1 53/4/1
f 55/4/1 53/4/1 54/4/1
f 60/5/1 57/5/1 56/5/1
f 61/5/1 57/5/1 60/5/1
f 62/5/1 59/5/1 58/5/1
f 63/5/1 59/5/1 62/5/1
f 64/5/2 65/5/2 68/5/2
f 68/5/2 65/5/2 69/5/2
f 66/5/2 67/5/2 70/5/2
f 70/5/2 67/5/2 71/5/2
f 72/4/2 73/4/2 78/4/2
f 73/5/2 74/5/2 78/5/2
f 74/4/2 75/4/2 79/4/2
f 78/5/2 74/5/2 79/5/2
f 75/5/2 76/5/2 80/5/2
f 79/4/2 75/4/2 80/4/2
f 76/4/2 77/4/2 81/4/2
f 80/5/2 76/5/2 81/5/2
f 79/4/2 80/4/2 82/4/2
f 78/4/2 79/4/2 82/4/2
f 80/4/2 81/4/2 82/4/2
f 72/4/2 78/4/2 82/4/2
f 81/4/2 77/4/2 83/4/2
f 82/4/2 81/4/2 83/4/2
f 84/5/2 85/5/2 89/5/2
f 89/5/2 85/5/2 90/5/2
f 90/5/2 85/5/2 91/5/2
f 91/5/2 85/5/2 92/5/2
f 86/5/2 87/5/2 93/5/2
f 93/5/2 87/5/2 94/5/2
f 94/5/2 87/5/2 95/5/2
f 95/5/2 87/5/2 96/5/2
f 88/4/2 89/4/2 98/4/2
f 89/5/2 90/5/2 99/5/2
f 98/4/2 89/4/2 99/4/2
f 90/4/2 91/4/2 100/4/2
f 99/5/2 90/5/2 100/5/2
f 91/5/2 92/5/2 101/5/2
f 100/4/2 91/4/2 101/4/2
f 92/4/2 93/4/2 102/4/2
f 101/5/2 92/5/2 102/5/2
f 93/5/2 94/5/2 103/5/2
f 102/4/2 93/4/2 103/4/2
f 94/4/2 95/4/2 104/4/2
f 103/5/2 94/5/2 104/5/2
f 95/5/2 96/5/2 105/5/2
f 104/4/2 95/4/2 105/4/2
f 96/4/2 97/4/2 106/4/2
f 105/5/2 96/5/2 106/5/2
f 106/4/2 97/4/2 107/4/2
f 98/2/2 99/2/2 108/2/2
f 108/2/2 99/2/2 109/2/2
f 99/5/2 100/5/2 110/5/2
f 109/2/2 99/2/2 110/2/2
f 100/5/2 101/5/2 110/5/2
f 101/5/2 102/5/2 110/5/2
f 102/2/2 103/2/2 111/2/2
f 110/5/2 102/5/2 111/5/2
f 104/5/2 105/5/2 112/5/2
f 111/2/2 103/2/2 112/2/2
f 103/5/2 104/5/2 112/5/2
f 105/5/2 106/5/2 112/5/2
f 106/2/2 107/2/2 113/2/2
f 112/5/2 106/5/2 113/5/2
f 113/2/2 107/2/2 114/2/2
f 108/1/2 109/1/2 115/1/2
f 110/3/2 111/3/2 116/3/2
f 115/1/2 109/1/2 116/1/2
f 111/3/2 112/3/2 116/3/2
f 113/3/2 114/3/2 116/3/2
f 112/3/2 113/3/2 116/3/2
f 109/3/2 110/3/2 116/3/2
f 116/3/2 114/3/2 117/3/2
f 117/3/2 114/3/2 118/3/2
f 115/3/2 116/3/2 119/3/2
f 116/3/2 117/3/2 119/3/2
f 119/3/2 117/3/2 120/3/2
f 118/3/2 114/3/2 121/3/2
f 121/3/2 114/3/2 122/3/2
f 123/2/2 124/2/2 125/2/2
f 125/2/2 124/2/2 126/2/2
f 132/2/3 129/2/3 128/2/3
f 132/1/3 130/1/3 129/1/3
f 133/3/3 131/3/3 130/3/3
f 133/1/3 130/1/3 132/1/3
f 134/3/3 133/3/3 132/3/3
f 134/3/3 131/3/3 133/3/3
f 135/3/3 131/3/3 134/3/3
f 136/3/3 134/3/3 132/3/3
f 136/2/3 135/2/3 134/2/3
f 137/2/3 135/2/3 136/2/3
f 138/2/3 132/2/3 128/2/3
f 138/3/3 136/3/3 132/3/3
f 138/3/3 137/3/3 136/3/3
f 139/3/3 137/3/3 138/3/3
f 140/4/3 128/4/3 127/4/3
f 141/2/3 138/2/3 128/2/3
f 141/4/3 128/4/3 140/4/3
f 142/1/3 139/1/3 138/1/3
f 142/2/3 138/2/3 141/2/3
f 143/3/3 137/3/3 139/3/3
f 143/1/3 139/1/3 142/1/3
f 144/3/3 137/3/3 143/3/3
f 147/5/3 146/5/3 145/5/3
f 148/5/3 146/5/3 147/5/3
f 151/5/3 150/5/3 149/5/3
f 152/5/3 150/5/3 151/5/3
f 155/4/3 154/4/3 153/4/3
f 156/4/3 154/4/3 155/4/3
f 157/5/3 156/5/3 155/5/3
f 158/4/3 154/4/3 156/4/3
f 158/5/3 156/5/3 157/5/3
f 159/4/3 158/4/3 157/4/3
f 160/4/3 154/4/3 158/4/3
f 160/4/3 158/4/3 159/4/3
f 163/2/3 162/2/3 161/2/3
f 164/2/3 162/2/3 163/2/3
f 167/2/3 166/2/3 165/2/3
f 168/2/3 166/2/3 167/2/3
f 171/5/3 170/5/3 169/5/3
f 172/5/3 170/5/3 171/5/3
f 175/5/3 174/5/3 173/5/3
f 176/5/3 174/5/3 175/5/3
f 177/5/4 178/5/4 179/5/4
f 179/5/4 178/5/4 180/5/4
f 181/5/4 182/5/4 183/5/4
f 183/5/4 182/5/4 184/5/4
f 185/2/4 186/2/4 187/2/4
f 187/2/4 186/2/4 188/2/4
f 189/2/4 190/2/4 191/2/4
f 191/2/4 190/2/4 192/2/4
f 193/5/4 194/5/4 195/5/4
f 195/5/4 194/5/4 196/5/4
f 197/4/4 198/4/4 199/4/4
f 199/4/4 198/4/4 200/4/4
f 200/4/4 198/4/4 203/4/4
f 203/4/4 198/4/4 204/4/4
f 201/5/4 202/5/4 205/5/4
f 205/5/4 202/5/4 206/5/4
f 209/3/4 210/3/4 211/3/4
f 211/3/4 210/3/4 212/3/4
f 209/3/4 211/3/4 213/3/4
f 211/2/4 212/2/4 213/2/4
f 213/2/4 212/2/4 214/2/4
f 207/4/4 208/4/4 215/4/4
f 208/2/4 209/2/4 216/2/4
f 215/4/4 208/4/4 216/4/4
f 209/3/4 213/3/4 217/3/4
f 216/2/4 209/2/4 217/2/4
f 213/3/4 214/3/4 217/3/4
f 217/3/4 214/3/4 218/3/4
f 223/5/5 220/5/5 219/5/5
f 224/5/5 220/5/5 223/5/5
f 225/5/5 222/5/5 221/5/5
f 226/5/5 222/5/5 225/5/5
f 231/5/5 228/5/5 227/5/5
f 232/5/5 228/5/5 231/5/5
f 233/5/5 230/5/5 229/5/5
f 234/5/5 230/5/5 233/5/5
f 237/4/5 236/4/5 235/4/5
f 238/4/5 236/4/5 237/4/5
f 239/4/5 236/4/5 238/4/5
f 240/4/5 236/4/5 239/4/5
f 242/4/5 239/4/5 238/4/5
f 243/4/5 239/4/5 242/4/5
f 245/4/5 242/4/5 241/4/5
f 245/4/5 244/4/5 243/4/5
f 245/4/5 243/4/5 242/4/5
f 246/4/5 244/4/5 245/4/5
f 247/4/5 244/4/5 246/4/5
f 248/4/5 244/4/5 247/4/5
f 250/4/5 247/4/5 246/4/5
f 251/4/5 247/4/5 250/4/5
f 253/4/5 250/4/5 249/4/5
f 253/4/5 252/4/5 251/4/5
f 253/4/5 251/4/5 250/4/5
f 254/4/5 252/4/5 253/4/5
f 259/2/5 256/2/5 255/2/5
f 260/2/5 256/2/5 259/2/5
f 261/2/5 258/2/5 257/2/5
f 262/2/5 258/2/5 261/2/5
f 263/3/6 264/3/6 267/3/6
f 264/2/6 265/2/6 268/2/6
f 267/3/6 264/3/6 268/3/6
f 265/3/6 266/3/6 269/3/6
f 268/2/6 265/2/6 269/2/6
f 269/3/6 266/3/6 270/3/6
f 263/3/6 267/3/6 272/3/6
f 272/3/6 267/3/6 273/3/6
f 270/3/6 266/3/6 274/3/6
f 274/3/6 266/3/6 275/3/6
f 271/2/6 272/2/6 277/2/6
f 272/3/6 273/3/6 278/3/6
f 277/2/6 272/2/6 278/2/6
f 275/2/6 276/2/6 279/2/6
f 274/3/6 275/3/6 279/3/6
f 279/2/6 276/2/6 280/2/6
f 278/3/6 273/3/6 281/3/6
f 274/3/6 279/3/6 282/3/6
f 278/3/6 281/3/6 283/3/6
f 282/3/6 279/3/6 284/3/6
f 278/3/6 283/3/6 285/3/6
f 284/3/6 279/3/6 286/3/6
f 278/3/6 285/3/6 287/3/6
f 286/3/6 279/3/6 290/3/6
f 278/3/6 287/3/6 291/3/6
f 287/3/6 288/3/6 291/3/6
f 288/2/6 289/2/6 292/2/6
f 291/3/6 288/3/6 292/3/6
f 289/3/6 290/3/6 293/3/6
f 292/2/6 289/2/6 293/2/6
f 290/3/6 279/3/6 294/3/6
f 293/3/6 290/3/6 294/3/6
f 295/4/6 296/4/6 297/4/6
f 297/4/6 296/4/6 298/4/6
