# MagicaVoxel @ Ephtracy

# group
o 

# material
mtllib log.mtl
usemtl palette

# normals
vn -1 0 0
vn 1 0 0
vn 0 0 1
vn 0 0 -1
vn 0 -1 0
vn 0 1 0

# texcoords
vt 0.138672 0.5
vt 0.146484 0.5
vt 0.150391 0.5
vt 0.154297 0.5

# verts
v -1 0 2
v -1 0 -2
v -1 0.2 1.8
v -1 0.2 -0.5
v -1 0.2 -1.4
v -1 0.2 -1.8
v -1 0.4 1.8
v -1 0.4 -0.5
v -1 0.4 -0.8
v -1 0.4 -1.4
v -1 0.4 -1.6
v -1 0.4 -1.8
v -1 0.6 1.4
v -1 0.6 0.5
v -1 0.6 -0.8
v -1 0.6 -1.6
v -1 0.8 1.8
v -1 0.8 1.5
v -1 0.8 1.4
v -1 0.8 0.7
v -1 0.8 0.5
v -1 0.8 -0.2
v -1 0.8 -0.5
v -1 0.8 -1.8
v -1 1 1.8
v -1 1 1.5
v -1 1 0.7
v -1 1 -0.2
v -1 1 -0.5
v -1 1 -1.8
v -1 1.2 1.8
v -1 1.2 0.9
v -1 1.2 0.7
v -1 1.2 -0.3
v -1 1.2 -0.5
v -1 1.2 -1.3
v -1 1.2 -1.6
v -1 1.2 -1.8
v -1 1.4 1.8
v -1 1.4 0.9
v -1 1.4 0.7
v -1 1.4 -0.3
v -1 1.4 -0.5
v -1 1.4 -1.3
v -1 1.4 -1.6
v -1 1.4 -1.8
v -1 1.6 1.8
v -1 1.6 0.2
v -1 1.6 -2.38419e-07
v -1 1.6 -0.9
v -1 1.6 -1.1
v -1 1.6 -1.8
v -1 1.8 1.8
v -1 1.8 0.2
v -1 1.8 -2.38419e-07
v -1 1.8 -0.9
v -1 1.8 -1.1
v -1 1.8 -1.8
v -1 2 2
v -1 2 -2
v 1 0 2
v 1 0 -2
v 1 0.2 1.8
v 1 0.2 -0.5
v 1 0.2 -1.4
v 1 0.2 -1.8
v 1 0.4 1.8
v 1 0.4 -0.5
v 1 0.4 -0.8
v 1 0.4 -1.4
v 1 0.4 -1.6
v 1 0.4 -1.8
v 1 0.6 1.4
v 1 0.6 0.5
v 1 0.6 -0.8
v 1 0.6 -1.6
v 1 0.8 1.8
v 1 0.8 1.5
v 1 0.8 1.4
v 1 0.8 0.7
v 1 0.8 0.5
v 1 0.8 -0.2
v 1 0.8 -0.5
v 1 0.8 -1.8
v 1 1 1.8
v 1 1 1.5
v 1 1 0.7
v 1 1 -0.2
v 1 1 -0.5
v 1 1 -1.8
v 1 1.2 1.8
v 1 1.2 0.9
v 1 1.2 0.7
v 1 1.2 -0.3
v 1 1.2 -0.5
v 1 1.2 -1.3
v 1 1.2 -1.6
v 1 1.2 -1.8
v 1 1.4 1.8
v 1 1.4 0.9
v 1 1.4 0.7
v 1 1.4 -0.3
v 1 1.4 -0.5
v 1 1.4 -1.3
v 1 1.4 -1.6
v 1 1.4 -1.8
v 1 1.6 1.8
v 1 1.6 0.2
v 1 1.6 -2.38419e-07
v 1 1.6 -0.9
v 1 1.6 -1.1
v 1 1.6 -1.8
v 1 1.8 1.8
v 1 1.8 0.2
v 1 1.8 -2.38419e-07
v 1 1.8 -0.9
v 1 1.8 -1.1
v 1 1.8 -1.8
v 1 2 2
v 1 2 -2
v -1 0 2
v -1 2 2
v -0.8 0.2 2
v -0.8 1.8 2
v -0.6 0.4 2
v -0.6 0.8 2
v -0.6 1 2
v -0.6 1.6 2
v -0.4 0.6 2
v -0.4 0.8 2
v -0.4 1 2
v -0.4 1.4 2
v -0.2 0.8 2
v -0.2 1.2 2
v -0.2 1.4 2
v -0.2 1.6 2
v 0 1.4 2
v 0 1.6 2
v 0.2 0.8 2
v 0.2 1.2 2
v 0.4 0.6 2
v 0.4 0.8 2
v 0.4 1 2
v 0.4 1.4 2
v 0.6 0.4 2
v 0.6 0.8 2
v 0.6 1 2
v 0.6 1.6 2
v 0.8 0.2 2
v 0.8 1.8 2
v 1 0 2
v 1 2 2
v -1 0 -2
v -1 2 -2
v -0.8 0.2 -2
v -0.8 1.8 -2
v -0.6 0.4 -2
v -0.6 0.9 -2
v -0.6 1.1 -2
v -0.6 1.6 -2
v -0.4 0.6 -2
v -0.4 0.9 -2
v -0.4 1.1 -2
v -0.4 1.4 -2
v -0.2 0.4 -2
v -0.2 0.6 -2
v -0.2 0.8 -2
v -0.2 1.2 -2
v 0 0.4 -2
v 0 0.6 -2
v 0.2 0.8 -2
v 0.2 1.2 -2
v 0.4 0.8 -2
v 0.4 1.4 -2
v 0.6 0.4 -2
v 0.6 0.6 -2
v 0.6 0.8 -2
v 0.6 1.6 -2
v 0.8 0.2 -2
v 0.8 1.8 -2
v 1 0 -2
v 1 2 -2
v -1 0 2
v 1 0 2
v -0.8 0 1.8
v -0.6 0 1.8
v 0 0 1.8
v 0.2 0 1.8
v 0.4 0 1.8
v 0.6 0 1.8
v -0.4 0 1.6
v -0.2 0 1.6
v -0.4 0 0.9
v -0.2 0 0.9
v 0.6 0 0.9
v 0.8 0 0.9
v 0.4 0 0.7
v 0.6 0 0.7
v -0.8 0 0.6
v -0.6 0 0.6
v -0.2 0 0.6
v 0 0 0.6
v 0 0 0.4
v 0.2 0 0.4
v -0.6 0 0.3
v -0.4 0 0.3
v 0.2 0 0.3
v 0.4 0 0.3
v 0.2 0 -0.2
v 0.4 0 -0.2
v 0.6 0 -0.2
v 0.8 0 -0.2
v -0.8 0 -0.5
v -0.6 0 -0.5
v 0.4 0 -0.5
v 0.6 0 -0.5
v -0.2 0 -0.6
v 0 0 -0.6
v 0 0 -0.9
v 0.2 0 -0.9
v -0.6 0 -1
v -0.4 0 -1
v -0.4 0 -1.2
v -0.2 0 -1.2
v 0.6 0 -1.3
v 0.8 0 -1.3
v 0.4 0 -1.4
v 0.6 0 -1.4
v 0 0 -1.6
v 0.2 0 -1.6
v -0.8 0 -1.8
v -0.6 0 -1.8
v -0.4 0 -1.8
v -0.2 0 -1.8
v 0.6 0 -1.8
v 0.8 0 -1.8
v -1 0 -2
v 1 0 -2
v -1 2 2
v 1 2 2
v -0.2 2 1.8
v 0 2 1.8
v 0.4 2 1.8
v 0.6 2 1.8
v -0.8 2 1.5
v -0.6 2 1.5
v 0.2 2 1.1
v 0.4 2 1.1
v 0.4 2 0.9
v 0.6 2 0.9
v 0.6 2 0.7
v 0.8 2 0.7
v -0.8 2 0.6
v -0.6 2 0.6
v -0.6 2 0.4
v -0.4 2 0.4
v -0.8 2 -2.38419e-07
v -0.6 2 -2.38419e-07
v 0.6 2 -2.38419e-07
v 0.8 2 -2.38419e-07
v -0.6 2 -0.3
v -0.4 2 -0.3
v -0.2 2 -0.5
v 0 2 -0.5
v 0.6 2 -0.5
v 0.8 2 -0.5
v -0.2 2 -0.7
v 0 2 -0.7
v -0.6 2 -1.4
v -0.4 2 -1.4
v -0.2 2 -1.5
v 0 2 -1.5
v -0.8 2 -1.6
v -0.6 2 -1.6
v -0.6 2 -1.8
v -0.4 2 -1.8
v 0.2 2 -1.8
v 0.4 2 -1.8
v 0.6 2 -1.8
v 0.8 2 -1.8
v -1 2 -2
v 1 2 -2

# faces
f 3/3/1 2/3/1 1/3/1
f 4/3/1 2/3/1 3/3/1
f 5/3/1 2/3/1 4/3/1
f 6/3/1 2/3/1 5/3/1
f 7/3/1 3/3/1 1/3/1
f 7/1/1 4/1/1 3/1/1
f 8/3/1 5/3/1 4/3/1
f 8/1/1 4/1/1 7/1/1
f 9/3/1 5/3/1 8/3/1
f 10/1/1 6/1/1 5/1/1
f 10/3/1 5/3/1 9/3/1
f 11/1/1 6/1/1 10/1/1
f 12/3/1 2/3/1 6/3/1
f 12/1/1 6/1/1 11/1/1
f 13/3/1 9/3/1 8/3/1
f 13/3/1 8/3/1 7/3/1
f 14/3/1 9/3/1 13/3/1
f 15/1/1 11/1/1 10/1/1
f 15/3/1 9/3/1 14/3/1
f 15/1/1 10/1/1 9/1/1
f 16/3/1 12/3/1 11/3/1
f 16/1/1 11/1/1 15/1/1
f 17/3/1 7/3/1 1/3/1
f 17/3/1 13/3/1 7/3/1
f 18/3/1 13/3/1 17/3/1
f 19/1/1 14/1/1 13/1/1
f 19/3/1 13/3/1 18/3/1
f 20/1/1 14/1/1 19/1/1
f 21/3/1 15/3/1 14/3/1
f 21/1/1 14/1/1 20/1/1
f 21/3/1 16/3/1 15/3/1
f 22/3/1 16/3/1 21/3/1
f 23/3/1 16/3/1 22/3/1
f 24/3/1 2/3/1 12/3/1
f 24/3/1 16/3/1 23/3/1
f 24/3/1 12/3/1 16/3/1
f 25/1/1 18/1/1 17/1/1
f 25/3/1 17/3/1 1/3/1
f 26/3/1 20/3/1 19/3/1
f 26/1/1 18/1/1 25/1/1
f 26/3/1 19/3/1 18/3/1
f 27/1/1 22/1/1 21/1/1
f 27/3/1 20/3/1 26/3/1
f 27/1/1 21/1/1 20/1/1
f 28/3/1 23/3/1 22/3/1
f 28/1/1 22/1/1 27/1/1
f 29/1/1 24/1/1 23/1/1
f 29/3/1 23/3/1 28/3/1
f 30/3/1 2/3/1 24/3/1
f 30/1/1 24/1/1 29/1/1
f 31/3/1 29/3/1 28/3/1
f 31/3/1 27/3/1 26/3/1
f 31/3/1 30/3/1 29/3/1
f 31/3/1 28/3/1 27/3/1
f 31/3/1 25/3/1 1/3/1
f 31/3/1 26/3/1 25/3/1
f 32/3/1 30/3/1 31/3/1
f 33/3/1 30/3/1 32/3/1
f 34/3/1 30/3/1 33/3/1
f 35/3/1 30/3/1 34/3/1
f 36/3/1 30/3/1 35/3/1
f 37/3/1 30/3/1 36/3/1
f 38/3/1 2/3/1 30/3/1
f 38/3/1 30/3/1 37/3/1
f 39/3/1 31/3/1 1/3/1
f 39/1/1 32/1/1 31/1/1
f 40/3/1 33/3/1 32/3/1
f 40/1/1 32/1/1 39/1/1
f 41/1/1 34/1/1 33/1/1
f 41/3/1 33/3/1 40/3/1
f 42/3/1 35/3/1 34/3/1
f 42/1/1 34/1/1 41/1/1
f 43/1/1 36/1/1 35/1/1
f 43/3/1 35/3/1 42/3/1
f 44/3/1 37/3/1 36/3/1
f 44/1/1 36/1/1 43/1/1
f 45/1/1 38/1/1 37/1/1
f 45/3/1 37/3/1 44/3/1
f 46/3/1 2/3/1 38/3/1
f 46/1/1 38/1/1 45/1/1
f 47/3/1 43/3/1 42/3/1
f 47/3/1 45/3/1 44/3/1
f 47/3/1 46/3/1 45/3/1
f 47/3/1 42/3/1 41/3/1
f 47/3/1 41/3/1 40/3/1
f 47/3/1 40/3/1 39/3/1
f 47/3/1 39/3/1 1/3/1
f 47/3/1 44/3/1 43/3/1
f 48/3/1 46/3/1 47/3/1
f 49/3/1 46/3/1 48/3/1
f 50/3/1 46/3/1 49/3/1
f 51/3/1 46/3/1 50/3/1
f 52/3/1 2/3/1 46/3/1
f 52/3/1 46/3/1 51/3/1
f 53/3/1 47/3/1 1/3/1
f 53/1/1 48/1/1 47/1/1
f 54/3/1 49/3/1 48/3/1
f 54/1/1 48/1/1 53/1/1
f 55/1/1 50/1/1 49/1/1
f 55/3/1 49/3/1 54/3/1
f 56/3/1 51/3/1 50/3/1
f 56/1/1 50/1/1 55/1/1
f 57/1/1 52/1/1 51/1/1
f 57/3/1 51/3/1 56/3/1
f 58/3/1 2/3/1 52/3/1
f 58/1/1 52/1/1 57/1/1
f 59/3/1 55/3/1 54/3/1
f 59/3/1 57/3/1 56/3/1
f 59/3/1 58/3/1 57/3/1
f 59/3/1 54/3/1 53/3/1
f 59/3/1 53/3/1 1/3/1
f 59/3/1 56/3/1 55/3/1
f 60/3/1 2/3/1 58/3/1
f 60/3/1 58/3/1 59/3/1
f 61/3/2 62/3/2 63/3/2
f 63/3/2 62/3/2 64/3/2
f 64/3/2 62/3/2 65/3/2
f 65/3/2 62/3/2 66/3/2
f 61/3/2 63/3/2 67/3/2
f 63/1/2 64/1/2 67/1/2
f 64/3/2 65/3/2 68/3/2
f 67/1/2 64/1/2 68/1/2
f 68/3/2 65/3/2 69/3/2
f 65/1/2 66/1/2 70/1/2
f 69/3/2 65/3/2 70/3/2
f 70/1/2 66/1/2 71/1/2
f 66/3/2 62/3/2 72/3/2
f 71/1/2 66/1/2 72/1/2
f 68/3/2 69/3/2 73/3/2
f 67/3/2 68/3/2 73/3/2
f 73/3/2 69/3/2 74/3/2
f 70/1/2 71/1/2 75/1/2
f 74/3/2 69/3/2 75/3/2
f 69/1/2 70/1/2 75/1/2
f 71/3/2 72/3/2 76/3/2
f 75/1/2 71/1/2 76/1/2
f 61/3/2 67/3/2 77/3/2
f 67/3/2 73/3/2 77/3/2
f 77/3/2 73/3/2 78/3/2
f 73/1/2 74/1/2 79/1/2
f 78/3/2 73/3/2 79/3/2
f 79/1/2 74/1/2 80/1/2
f 74/3/2 75/3/2 81/3/2
f 80/1/2 74/1/2 81/1/2
f 75/3/2 76/3/2 81/3/2
f 81/3/2 76/3/2 82/3/2
f 82/3/2 76/3/2 83/3/2
f 72/3/2 62/3/2 84/3/2
f 83/3/2 76/3/2 84/3/2
f 76/3/2 72/3/2 84/3/2
f 77/1/2 78/1/2 85/1/2
f 61/3/2 77/3/2 85/3/2
f 79/3/2 80/3/2 86/3/2
f 85/1/2 78/1/2 86/1/2
f 78/3/2 79/3/2 86/3/2
f 81/1/2 82/1/2 87/1/2
f 86/3/2 80/3/2 87/3/2
f 80/1/2 81/1/2 87/1/2
f 82/3/2 83/3/2 88/3/2
f 87/1/2 82/1/2 88/1/2
f 83/1/2 84/1/2 89/1/2
f 88/3/2 83/3/2 89/3/2
f 84/3/2 62/3/2 90/3/2
f 89/1/2 84/1/2 90/1/2
f 88/3/2 89/3/2 91/3/2
f 86/3/2 87/3/2 91/3/2
f 89/3/2 90/3/2 91/3/2
f 87/3/2 88/3/2 91/3/2
f 61/3/2 85/3/2 91/3/2
f 85/3/2 86/3/2 91/3/2
f 91/3/2 90/3/2 92/3/2
f 92/3/2 90/3/2 93/3/2
f 93/3/2 90/3/2 94/3/2
f 94/3/2 90/3/2 95/3/2
f 95/3/2 90/3/2 96/3/2
f 96/3/2 90/3/2 97/3/2
f 90/3/2 62/3/2 98/3/2
f 97/3/2 90/3/2 98/3/2
f 61/3/2 91/3/2 99/3/2
f 91/1/2 92/1/2 99/1/2
f 92/3/2 93/3/2 100/3/2
f 99/1/2 92/1/2 100/1/2
f 93/1/2 94/1/2 101/1/2
f 100/3/2 93/3/2 101/3/2
f 94/3/2 95/3/2 102/3/2
f 101/1/2 94/1/2 102/1/2
f 95/1/2 96/1/2 103/1/2
f 102/3/2 95/3/2 103/3/2
f 96/3/2 97/3/2 104/3/2
f 103/1/2 96/1/2 104/1/2
f 97/1/2 98/1/2 105/1/2
f 104/3/2 97/3/2 105/3/2
f 98/3/2 62/3/2 106/3/2
f 105/1/2 98/1/2 106/1/2
f 102/3/2 103/3/2 107/3/2
f 104/3/2 105/3/2 107/3/2
f 105/3/2 106/3/2 107/3/2
f 101/3/2 102/3/2 107/3/2
f 100/3/2 101/3/2 107/3/2
f 99/3/2 100/3/2 107/3/2
f 61/3/2 99/3/2 107/3/2
f 103/3/2 104/3/2 107/3/2
f 107/3/2 106/3/2 108/3/2
f 108/3/2 106/3/2 109/3/2
f 109/3/2 106/3/2 110/3/2
f 110/3/2 106/3/2 111/3/2
f 106/3/2 62/3/2 112/3/2
f 111/3/2 106/3/2 112/3/2
f 61/3/2 107/3/2 113/3/2
f 107/1/2 108/1/2 113/1/2
f 108/3/2 109/3/2 114/3/2
f 113/1/2 108/1/2 114/1/2
f 109/1/2 110/1/2 115/1/2
f 114/3/2 109/3/2 115/3/2
f 110/3/2 111/3/2 116/3/2
f 115/1/2 110/1/2 116/1/2
f 111/1/2 112/1/2 117/1/2
f 116/3/2 111/3/2 117/3/2
f 112/3/2 62/3/2 118/3/2
f 117/1/2 112/1/2 118/1/2
f 114/3/2 115/3/2 119/3/2
f 116/3/2 117/3/2 119/3/2
f 117/3/2 118/3/2 119/3/2
f 113/3/2 114/3/2 119/3/2
f 61/3/2 113/3/2 119/3/2
f 115/3/2 116/3/2 119/3/2
f 118/3/2 62/3/2 120/3/2
f 119/3/2 118/3/2 120/3/2
f 123/3/3 122/3/3 121/3/3
f 124/3/3 122/3/3 123/3/3
f 125/4/3 124/4/3 123/4/3
f 126/4/3 124/4/3 125/4/3
f 127/4/3 124/4/3 126/4/3
f 128/4/3 124/4/3 127/4/3
f 129/2/3 126/2/3 125/2/3
f 130/4/3 127/4/3 126/4/3
f 130/2/3 126/2/3 129/2/3
f 131/2/3 128/2/3 127/2/3
f 131/4/3 127/4/3 130/4/3
f 132/2/3 128/2/3 131/2/3
f 133/4/3 130/4/3 129/4/3
f 133/4/3 131/4/3 130/4/3
f 133/4/3 132/4/3 131/4/3
f 134/4/3 132/4/3 133/4/3
f 135/2/3 128/2/3 132/2/3
f 135/4/3 132/4/3 134/4/3
f 136/4/3 124/4/3 128/4/3
f 136/2/3 128/2/3 135/2/3
f 137/4/3 135/4/3 134/4/3
f 137/4/3 136/4/3 135/4/3
f 138/4/3 124/4/3 136/4/3
f 138/4/3 136/4/3 137/4/3
f 139/2/3 134/2/3 133/2/3
f 139/4/3 133/4/3 129/4/3
f 140/4/3 137/4/3 134/4/3
f 140/2/3 134/2/3 139/2/3
f 141/4/3 139/4/3 129/4/3
f 141/2/3 129/2/3 125/2/3
f 141/4/3 140/4/3 139/4/3
f 142/4/3 140/4/3 141/4/3
f 143/4/3 140/4/3 142/4/3
f 144/4/3 137/4/3 140/4/3
f 144/4/3 140/4/3 143/4/3
f 144/2/3 138/2/3 137/2/3
f 145/4/3 125/4/3 123/4/3
f 145/2/3 142/2/3 141/2/3
f 145/2/3 141/2/3 125/2/3
f 146/4/3 143/4/3 142/4/3
f 146/2/3 142/2/3 145/2/3
f 147/2/3 144/2/3 143/2/3
f 147/4/3 143/4/3 146/4/3
f 148/2/3 138/2/3 144/2/3
f 148/2/3 144/2/3 147/2/3
f 148/4/3 124/4/3 138/4/3
f 149/3/3 123/3/3 121/3/3
f 149/4/3 147/4/3 146/4/3
f 149/4/3 148/4/3 147/4/3
f 149/4/3 146/4/3 145/4/3
f 149/4/3 145/4/3 123/4/3
f 150/4/3 124/4/3 148/4/3
f 150/4/3 148/4/3 149/4/3
f 150/3/3 122/3/3 124/3/3
f 151/3/3 149/3/3 121/3/3
f 151/3/3 150/3/3 149/3/3
f 152/3/3 122/3/3 150/3/3
f 152/3/3 150/3/3 151/3/3
f 153/3/4 154/3/4 155/3/4
f 155/3/4 154/3/4 156/3/4
f 155/4/4 156/4/4 157/4/4
f 157/4/4 156/4/4 158/4/4
f 158/4/4 156/4/4 159/4/4
f 159/4/4 156/4/4 160/4/4
f 157/2/4 158/2/4 161/2/4
f 158/4/4 159/4/4 162/4/4
f 161/2/4 158/2/4 162/2/4
f 159/2/4 160/2/4 163/2/4
f 162/4/4 159/4/4 163/4/4
f 163/2/4 160/2/4 164/2/4
f 155/4/4 157/4/4 165/4/4
f 157/2/4 161/2/4 165/2/4
f 163/4/4 164/4/4 166/4/4
f 165/2/4 161/2/4 166/2/4
f 161/4/4 162/4/4 166/4/4
f 162/4/4 163/4/4 166/4/4
f 166/4/4 164/4/4 167/4/4
f 167/4/4 164/4/4 168/4/4
f 155/4/4 165/4/4 169/4/4
f 165/4/4 166/4/4 169/4/4
f 166/4/4 167/4/4 169/4/4
f 169/4/4 167/4/4 170/4/4
f 167/2/4 168/2/4 171/2/4
f 170/4/4 167/4/4 171/4/4
f 168/4/4 164/4/4 172/4/4
f 171/2/4 168/2/4 172/2/4
f 170/4/4 171/4/4 173/4/4
f 171/4/4 172/4/4 173/4/4
f 164/2/4 160/2/4 174/2/4
f 173/4/4 172/4/4 174/4/4
f 172/4/4 164/4/4 174/4/4
f 155/4/4 169/4/4 175/4/4
f 169/2/4 170/2/4 175/2/4
f 170/4/4 173/4/4 176/4/4
f 175/2/4 170/2/4 176/2/4
f 173/2/4 174/2/4 177/2/4
f 176/4/4 173/4/4 177/4/4
f 160/4/4 156/4/4 178/4/4
f 177/2/4 174/2/4 178/2/4
f 174/2/4 160/2/4 178/2/4
f 153/3/4 155/3/4 179/3/4
f 155/4/4 175/4/4 179/4/4
f 177/4/4 178/4/4 179/4/4
f 175/4/4 176/4/4 179/4/4
f 176/4/4 177/4/4 179/4/4
f 178/4/4 156/4/4 180/4/4
f 179/4/4 178/4/4 180/4/4
f 156/3/4 154/3/4 180/3/4
f 153/3/4 179/3/4 181/3/4
f 179/3/4 180/3/4 181/3/4
f 180/3/4 154/3/4 182/3/4
f 181/3/4 180/3/4 182/3/4
f 185/3/5 184/3/5 183/3/5
f 186/3/5 184/3/5 185/3/5
f 187/3/5 184/3/5 186/3/5
f 188/3/5 184/3/5 187/3/5
f 189/3/5 184/3/5 188/3/5
f 190/3/5 184/3/5 189/3/5
f 191/3/5 187/3/5 186/3/5
f 192/3/5 187/3/5 191/3/5
f 193/3/5 191/3/5 186/3/5
f 193/1/5 192/1/5 191/1/5
f 194/3/5 187/3/5 192/3/5
f 194/1/5 192/1/5 193/1/5
f 195/3/5 184/3/5 190/3/5
f 195/1/5 190/1/5 189/1/5
f 196/3/5 184/3/5 195/3/5
f 197/3/5 189/3/5 188/3/5
f 197/1/5 195/1/5 189/1/5
f 197/1/5 196/1/5 195/1/5
f 198/1/5 196/1/5 197/1/5
f 199/3/5 185/3/5 183/3/5
f 199/1/5 186/1/5 185/1/5
f 200/3/5 194/3/5 193/3/5
f 200/1/5 186/1/5 199/1/5
f 200/3/5 193/3/5 186/3/5
f 201/3/5 187/3/5 194/3/5
f 201/3/5 194/3/5 200/3/5
f 202/1/5 188/1/5 187/1/5
f 202/3/5 187/3/5 201/3/5
f 203/1/5 202/1/5 201/1/5
f 203/1/5 188/1/5 202/1/5
f 204/3/5 198/3/5 197/3/5
f 204/1/5 188/1/5 203/1/5
f 204/3/5 197/3/5 188/3/5
f 205/3/5 200/3/5 199/3/5
f 205/3/5 201/3/5 200/3/5
f 206/3/5 201/3/5 205/3/5
f 207/3/5 198/3/5 204/3/5
f 207/3/5 204/3/5 203/3/5
f 208/3/5 198/3/5 207/3/5
f 209/3/5 207/3/5 203/3/5
f 209/1/5 208/1/5 207/1/5
f 210/3/5 198/3/5 208/3/5
f 210/1/5 208/1/5 209/1/5
f 211/1/5 196/1/5 198/1/5
f 211/3/5 198/3/5 210/3/5
f 212/3/5 184/3/5 196/3/5
f 212/1/5 196/1/5 211/1/5
f 213/3/5 199/3/5 183/3/5
f 213/3/5 205/3/5 199/3/5
f 214/1/5 206/1/5 205/1/5
f 214/3/5 205/3/5 213/3/5
f 215/3/5 210/3/5 209/3/5
f 215/3/5 211/3/5 210/3/5
f 215/3/5 212/3/5 211/3/5
f 216/3/5 212/3/5 215/3/5
f 217/1/5 203/1/5 201/1/5
f 217/3/5 201/3/5 206/3/5
f 218/3/5 209/3/5 203/3/5
f 218/1/5 203/1/5 217/1/5
f 218/3/5 215/3/5 209/3/5
f 219/3/5 218/3/5 217/3/5
f 219/3/5 215/3/5 218/3/5
f 220/3/5 215/3/5 219/3/5
f 221/1/5 206/1/5 214/1/5
f 221/1/5 214/1/5 213/1/5
f 222/3/5 217/3/5 206/3/5
f 222/1/5 206/1/5 221/1/5
f 222/3/5 219/3/5 217/3/5
f 223/3/5 222/3/5 221/3/5
f 223/3/5 219/3/5 222/3/5
f 224/3/5 219/3/5 223/3/5
f 225/3/5 212/3/5 216/3/5
f 225/1/5 216/1/5 215/1/5
f 226/3/5 184/3/5 212/3/5
f 226/3/5 212/3/5 225/3/5
f 227/3/5 215/3/5 220/3/5
f 227/1/5 225/1/5 215/1/5
f 227/1/5 226/1/5 225/1/5
f 228/1/5 226/1/5 227/1/5
f 229/3/5 219/3/5 224/3/5
f 229/1/5 220/1/5 219/1/5
f 230/3/5 228/3/5 227/3/5
f 230/1/5 220/1/5 229/1/5
f 230/3/5 227/3/5 220/3/5
f 231/3/5 213/3/5 183/3/5
f 231/1/5 221/1/5 213/1/5
f 232/3/5 223/3/5 221/3/5
f 232/1/5 221/1/5 231/1/5
f 233/1/5 224/1/5 223/1/5
f 233/3/5 223/3/5 232/3/5
f 234/3/5 229/3/5 224/3/5
f 234/1/5 224/1/5 233/1/5
f 234/3/5 230/3/5 229/3/5
f 235/1/5 226/1/5 228/1/5
f 235/3/5 230/3/5 234/3/5
f 235/3/5 228/3/5 230/3/5
f 236/3/5 184/3/5 226/3/5
f 236/1/5 226/1/5 235/1/5
f 237/3/5 235/3/5 234/3/5
f 237/3/5 234/3/5 233/3/5
f 237/3/5 236/3/5 235/3/5
f 237/3/5 233/3/5 232/3/5
f 237/3/5 231/3/5 183/3/5
f 237/3/5 232/3/5 231/3/5
f 238/3/5 184/3/5 236/3/5
f 238/3/5 236/3/5 237/3/5
f 239/3/6 240/3/6 241/3/6
f 241/3/6 240/3/6 242/3/6
f 242/3/6 240/3/6 243/3/6
f 243/3/6 240/3/6 244/3/6
f 239/3/6 241/3/6 245/3/6
f 245/3/6 241/3/6 246/3/6
f 242/3/6 243/3/6 247/3/6
f 243/1/6 244/1/6 248/1/6
f 247/3/6 243/3/6 248/3/6
f 247/1/6 248/1/6 249/1/6
f 248/1/6 244/1/6 249/1/6
f 244/3/6 240/3/6 250/3/6
f 249/1/6 244/1/6 250/1/6
f 249/3/6 250/3/6 251/3/6
f 250/3/6 240/3/6 251/3/6
f 251/3/6 240/3/6 252/3/6
f 239/3/6 245/3/6 253/3/6
f 245/1/6 246/1/6 253/1/6
f 246/3/6 241/3/6 254/3/6
f 253/1/6 246/1/6 254/1/6
f 253/3/6 254/3/6 255/3/6
f 254/3/6 241/3/6 255/3/6
f 255/3/6 241/3/6 256/3/6
f 239/3/6 253/3/6 257/3/6
f 253/3/6 255/3/6 257/3/6
f 255/1/6 256/1/6 258/1/6
f 257/3/6 255/3/6 258/3/6
f 251/1/6 252/1/6 259/1/6
f 249/3/6 251/3/6 259/3/6
f 252/3/6 240/3/6 260/3/6
f 259/1/6 252/1/6 260/1/6
f 258/1/6 256/1/6 261/1/6
f 257/1/6 258/1/6 261/1/6
f 256/3/6 241/3/6 262/3/6
f 261/1/6 256/1/6 262/1/6
f 241/1/6 242/1/6 263/1/6
f 262/3/6 241/3/6 263/3/6
f 261/3/6 262/3/6 263/3/6
f 242/3/6 247/3/6 264/3/6
f 263/1/6 242/1/6 264/1/6
f 249/3/6 259/3/6 265/3/6
f 259/3/6 260/3/6 265/3/6
f 260/3/6 240/3/6 266/3/6
f 265/3/6 260/3/6 266/3/6
f 261/3/6 263/3/6 267/3/6
f 263/3/6 264/3/6 267/3/6
f 264/3/6 247/3/6 268/3/6
f 267/3/6 264/3/6 268/3/6
f 257/1/6 261/1/6 269/1/6
f 261/3/6 267/3/6 269/3/6
f 269/3/6 267/3/6 270/3/6
f 267/1/6 268/1/6 271/1/6
f 270/3/6 267/3/6 271/3/6
f 268/3/6 247/3/6 272/3/6
f 271/1/6 268/1/6 272/1/6
f 239/3/6 257/3/6 273/3/6
f 269/1/6 270/1/6 273/1/6
f 257/1/6 269/1/6 273/1/6
f 273/1/6 270/1/6 274/1/6
f 273/3/6 274/3/6 275/3/6
f 274/1/6 270/1/6 275/1/6
f 270/3/6 271/3/6 276/3/6
f 275/1/6 270/1/6 276/1/6
f 271/3/6 272/3/6 276/3/6
f 247/1/6 249/1/6 277/1/6
f 276/3/6 272/3/6 277/3/6
f 272/3/6 247/3/6 277/3/6
f 249/3/6 265/3/6 278/3/6
f 277/1/6 249/1/6 278/1/6
f 265/1/6 266/1/6 279/1/6
f 278/3/6 265/3/6 279/3/6
f 266/3/6 240/3/6 280/3/6
f 279/1/6 266/1/6 280/1/6
f 275/3/6 276/3/6 281/3/6
f 277/3/6 278/3/6 281/3/6
f 279/3/6 280/3/6 281/3/6
f 276/3/6 277/3/6 281/3/6
f 239/3/6 273/3/6 281/3/6
f 278/3/6 279/3/6 281/3/6
f 273/3/6 275/3/6 281/3/6
f 280/3/6 240/3/6 282/3/6
f 281/3/6 280/3/6 282/3/6
