# MagicaVoxel @ Ephtracy

# group
o 

# material
mtllib neu_husky.mtl
usemtl palette

# normals
vn -1 0 0
vn 1 0 0
vn 0 0 1
vn 0 0 -1
vn 0 -1 0
vn 0 1 0

# texcoords
vt 0.0371094 0.5
vt 0.0410156 0.5
vt 0.0488281 0.5
vt 0.0566406 0.5
vt 0.0605469 0.5

# verts
v -0.4 0 0.7
v -0.4 0 0.4
v -0.4 0 -0.4
v -0.4 0 -0.7
v -0.4 0.1 0.7
v -0.4 0.1 0.6
v -0.4 0.1 -0.4
v -0.4 0.1 -0.5
v -0.4 0.3 0.6
v -0.4 0.3 0.5
v -0.4 0.3 -0.6
v -0.4 0.3 -0.7
v -0.4 0.4 0.5
v -0.4 0.4 0.4
v -0.4 0.4 -0.5
v -0.4 0.4 -0.6
v -0.4 0.5 0.4
v -0.4 0.5 0.2
v -0.4 0.5 -0.3
v -0.4 0.5 -0.5
v -0.4 0.6 0.2
v -0.4 0.6 -0.3
v -0.4 0.7 0.7
v -0.4 0.7 0.6
v -0.4 1 1.3
v -0.4 1 1
v -0.4 1 0.7
v -0.4 1.1 1.1
v -0.4 1.1 1
v -0.4 1.2 0.4
v -0.4 1.2 -0.7
v -0.4 1.3 1.3
v -0.4 1.3 1.1
v -0.4 1.3 0.9
v -0.4 1.4 1
v -0.4 1.4 0.9
v -0.4 1.5 1.1
v -0.4 1.5 1
v -0.4 1.7 1.1
v -0.4 1.7 0.9
v -0.4 1.7 0.7
v -0.4 1.7 0.4
v -0.4 2 0.9
v -0.4 2 0.7
v -0.3 0.6 0.8
v -0.3 0.6 0.6
v -0.3 0.7 0.7
v -0.3 0.7 0.6
v -0.3 0.8 0.9
v -0.3 0.8 0.8
v -0.3 1 0.9
v -0.3 1 0.7
v -0.2 1 1.5
v -0.2 1 1.3
v -0.2 1.3 1.5
v -0.2 1.3 1.3
v -0.1 0.6 -0.7
v -0.1 0.6 -0.9
v -0.1 0.7 -0.7
v -0.1 0.8 -0.7
v -0.1 0.8 -0.9
v -0.1 1.2 -0.7
v -0.1 1.3 1.5
v -0.1 1.3 1.4
v -0.1 1.3 1.1
v -0.1 1.4 1.5
v -0.1 1.4 1.4
v -0.1 1.4 1.1
v -0.1 1.6 -0.7
v -0.1 1.6 -0.9
v 0.1 1.7 0.9
v 0.1 1.7 0.7
v 0.1 2 0.9
v 0.1 2 0.7
v 0.2 0 0.7
v 0.2 0 0.4
v 0.2 0 -0.4
v 0.2 0 -0.7
v 0.2 0.1 0.7
v 0.2 0.1 0.6
v 0.2 0.1 -0.4
v 0.2 0.1 -0.5
v 0.2 0.3 -0.6
v 0.2 0.3 -0.7
v 0.2 0.5 0.6
v 0.2 0.5 0.4
v 0.2 0.5 -0.5
v 0.2 0.5 -0.6
v 0.2 0.5 -0.7
v -0.2 0 0.7
v -0.2 0 0.4
v -0.2 0 -0.4
v -0.2 0 -0.7
v -0.2 0.1 0.7
v -0.2 0.1 0.6
v -0.2 0.1 -0.4
v -0.2 0.1 -0.5
v -0.2 0.3 -0.6
v -0.2 0.3 -0.7
v -0.2 0.5 0.6
v -0.2 0.5 0.4
v -0.2 0.5 -0.5
v -0.2 0.5 -0.6
v -0.2 0.5 -0.7
v -0.1 1.7 0.9
v -0.1 1.7 0.7
v -0.1 2 0.9
v -0.1 2 0.7
v 0.1 0.6 -0.7
v 0.1 0.6 -0.9
v 0.1 0.7 -0.7
v 0.1 0.8 -0.7
v 0.1 0.8 -0.9
v 0.1 1.2 -0.7
v 0.1 1.3 1.5
v 0.1 1.3 1.4
v 0.1 1.3 1.1
v 0.1 1.4 1.5
v 0.1 1.4 1.4
v 0.1 1.4 1.1
v 0.1 1.6 -0.7
v 0.1 1.6 -0.9
v 0.2 1 1.5
v 0.2 1 1.3
v 0.2 1.3 1.5
v 0.2 1.3 1.3
v 0.3 0.6 0.8
v 0.3 0.6 0.6
v 0.3 0.7 0.7
v 0.3 0.7 0.6
v 0.3 0.8 0.9
v 0.3 0.8 0.8
v 0.3 1 0.9
v 0.3 1 0.7
v 0.4 0 0.7
v 0.4 0 0.4
v 0.4 0 -0.4
v 0.4 0 -0.7
v 0.4 0.1 0.7
v 0.4 0.1 0.6
v 0.4 0.1 -0.4
v 0.4 0.1 -0.5
v 0.4 0.3 0.6
v 0.4 0.3 0.5
v 0.4 0.3 -0.6
v 0.4 0.3 -0.7
v 0.4 0.4 0.5
v 0.4 0.4 0.4
v 0.4 0.4 -0.5
v 0.4 0.4 -0.6
v 0.4 0.5 0.4
v 0.4 0.5 0.2
v 0.4 0.5 -0.3
v 0.4 0.5 -0.5
v 0.4 0.6 0.2
v 0.4 0.6 -0.3
v 0.4 0.7 0.7
v 0.4 0.7 0.6
v 0.4 1 1.3
v 0.4 1 1
v 0.4 1 0.7
v 0.4 1.1 1.1
v 0.4 1.1 1
v 0.4 1.2 0.4
v 0.4 1.2 -0.7
v 0.4 1.3 1.3
v 0.4 1.3 1.1
v 0.4 1.3 0.9
v 0.4 1.4 1
v 0.4 1.4 0.9
v 0.4 1.5 1.1
v 0.4 1.5 1
v 0.4 1.7 1.1
v 0.4 1.7 0.9
v 0.4 1.7 0.7
v 0.4 1.7 0.4
v 0.4 2 0.9
v 0.4 2 0.7
v -0.2 1 1.5
v -0.2 1.3 1.5
v -0.1 1.3 1.5
v -0.1 1.4 1.5
v 0.1 1.3 1.5
v 0.1 1.4 1.5
v 0.2 1 1.5
v 0.2 1.3 1.5
v -0.4 1 1.3
v -0.4 1.3 1.3
v -0.2 1 1.3
v -0.2 1.3 1.3
v 0.2 1 1.3
v 0.2 1.3 1.3
v 0.4 1 1.3
v 0.4 1.3 1.3
v -0.4 1.3 1.1
v -0.4 1.5 1.1
v -0.4 1.7 1.1
v -0.3 1.3 1.1
v -0.3 1.4 1.1
v -0.3 1.5 1.1
v -0.3 1.6 1.1
v -0.2 1.3 1.1
v -0.2 1.4 1.1
v -0.1 1.3 1.1
v -0.1 1.4 1.1
v -0.1 1.5 1.1
v -0.1 1.6 1.1
v 0.1 1.3 1.1
v 0.1 1.4 1.1
v 0.1 1.5 1.1
v 0.1 1.6 1.1
v 0.2 1.3 1.1
v 0.2 1.4 1.1
v 0.3 1.3 1.1
v 0.3 1.4 1.1
v 0.3 1.5 1.1
v 0.3 1.6 1.1
v 0.4 1.3 1.1
v 0.4 1.5 1.1
v 0.4 1.7 1.1
v -0.4 1.7 0.9
v -0.4 2 0.9
v -0.3 0.8 0.9
v -0.3 1 0.9
v -0.3 1.7 0.9
v -0.3 1.9 0.9
v -0.2 1.7 0.9
v -0.2 1.9 0.9
v -0.1 1.7 0.9
v -0.1 2 0.9
v 0.1 1.7 0.9
v 0.1 2 0.9
v 0.2 1.7 0.9
v 0.2 1.9 0.9
v 0.3 0.8 0.9
v 0.3 1 0.9
v 0.3 1.7 0.9
v 0.3 1.9 0.9
v 0.4 1.7 0.9
v 0.4 2 0.9
v -0.3 0.6 0.8
v -0.3 0.8 0.8
v 0.3 0.6 0.8
v 0.3 0.8 0.8
v -0.4 0 0.7
v -0.4 0.1 0.7
v -0.4 0.7 0.7
v -0.4 1 0.7
v -0.3 0.7 0.7
v -0.3 1 0.7
v -0.2 0 0.7
v -0.2 0.1 0.7
v 0.2 0 0.7
v 0.2 0.1 0.7
v 0.3 0.7 0.7
v 0.3 1 0.7
v 0.4 0 0.7
v 0.4 0.1 0.7
v 0.4 0.7 0.7
v 0.4 1 0.7
v -0.4 0.1 0.6
v -0.4 0.3 0.6
v -0.4 0.7 0.6
v -0.3 0.3 0.6
v -0.3 0.6 0.6
v -0.3 0.7 0.6
v -0.2 0.1 0.6
v -0.2 0.5 0.6
v 0.2 0.1 0.6
v 0.2 0.5 0.6
v 0.3 0.3 0.6
v 0.3 0.6 0.6
v 0.3 0.7 0.6
v 0.4 0.1 0.6
v 0.4 0.3 0.6
v 0.4 0.7 0.6
v -0.4 0 -0.4
v -0.4 0.1 -0.4
v -0.2 0 -0.4
v -0.2 0.1 -0.4
v 0.2 0 -0.4
v 0.2 0.1 -0.4
v 0.4 0 -0.4
v 0.4 0.1 -0.4
v -0.4 0.1 -0.5
v -0.4 0.4 -0.5
v -0.4 0.5 -0.5
v -0.3 0.4 -0.5
v -0.3 0.5 -0.5
v -0.2 0.1 -0.5
v -0.2 0.5 -0.5
v 0.2 0.1 -0.5
v 0.2 0.5 -0.5
v 0.3 0.4 -0.5
v 0.3 0.5 -0.5
v 0.4 0.1 -0.5
v 0.4 0.4 -0.5
v 0.4 0.5 -0.5
v -0.1 1.2 -0.7
v -0.1 1.6 -0.7
v 0.1 1.2 -0.7
v 0.1 1.6 -0.7
v -0.4 1.7 0.7
v -0.4 2 0.7
v -0.1 1.7 0.7
v -0.1 2 0.7
v 0.1 1.7 0.7
v 0.1 2 0.7
v 0.4 1.7 0.7
v 0.4 2 0.7
v -0.4 0 0.4
v -0.4 0.4 0.4
v -0.4 0.5 0.4
v -0.4 1.2 0.4
v -0.4 1.7 0.4
v -0.3 0.4 0.4
v -0.3 0.5 0.4
v -0.2 0 0.4
v -0.2 0.5 0.4
v 0.2 0 0.4
v 0.2 0.5 0.4
v 0.3 0.4 0.4
v 0.3 0.5 0.4
v 0.4 0 0.4
v 0.4 0.4 0.4
v 0.4 0.5 0.4
v 0.4 1.2 0.4
v 0.4 1.7 0.4
v -0.4 0 -0.7
v -0.4 0.3 -0.7
v -0.4 1.2 -0.7
v -0.2 0 -0.7
v -0.2 0.3 -0.7
v -0.2 0.5 -0.7
v -0.2 0.7 -0.7
v -0.1 0.6 -0.7
v -0.1 0.7 -0.7
v -0.1 0.8 -0.7
v -0.1 1.2 -0.7
v 0.1 0.6 -0.7
v 0.1 0.7 -0.7
v 0.1 0.8 -0.7
v 0.1 1.2 -0.7
v 0.2 0 -0.7
v 0.2 0.3 -0.7
v 0.2 0.5 -0.7
v 0.2 0.7 -0.7
v 0.4 0 -0.7
v 0.4 0.3 -0.7
v 0.4 1.2 -0.7
v -0.1 0.6 -0.9
v -0.1 0.8 -0.9
v -0.1 1.6 -0.9
v 0.1 0.6 -0.9
v 0.1 0.8 -0.9
v 0.1 1.6 -0.9
v -0.4 0 0.7
v -0.2 0 0.7
v 0.2 0 0.7
v 0.4 0 0.7
v -0.4 0 0.4
v -0.2 0 0.4
v 0.2 0 0.4
v 0.4 0 0.4
v -0.4 0 -0.4
v -0.2 0 -0.4
v 0.2 0 -0.4
v 0.4 0 -0.4
v -0.4 0 -0.7
v -0.2 0 -0.7
v 0.2 0 -0.7
v 0.4 0 -0.7
v -0.2 0.5 0.6
v 0.2 0.5 0.6
v -0.4 0.5 0.4
v -0.3 0.5 0.4
v -0.2 0.5 0.4
v 0.2 0.5 0.4
v 0.3 0.5 0.4
v 0.4 0.5 0.4
v -0.4 0.5 0.2
v -0.3 0.5 0.2
v 0.3 0.5 0.2
v 0.4 0.5 0.2
v -0.4 0.5 -0.3
v -0.3 0.5 -0.3
v 0.3 0.5 -0.3
v 0.4 0.5 -0.3
v -0.2 0.5 -0.4
v 0.2 0.5 -0.4
v -0.4 0.5 -0.5
v -0.3 0.5 -0.5
v -0.2 0.5 -0.5
v 0.2 0.5 -0.5
v 0.3 0.5 -0.5
v 0.4 0.5 -0.5
v -0.2 0.5 -0.6
v 0.2 0.5 -0.6
v -0.2 0.5 -0.7
v 0.2 0.5 -0.7
v -0.3 0.6 0.8
v 0.3 0.6 0.8
v -0.3 0.6 0.6
v 0.3 0.6 0.6
v -0.1 0.6 -0.7
v 0.1 0.6 -0.7
v -0.1 0.6 -0.9
v 0.1 0.6 -0.9
v -0.4 0.7 0.7
v -0.3 0.7 0.7
v 0.3 0.7 0.7
v 0.4 0.7 0.7
v -0.4 0.7 0.6
v -0.3 0.7 0.6
v 0.3 0.7 0.6
v 0.4 0.7 0.6
v -0.3 0.8 0.9
v 0.3 0.8 0.9
v -0.3 0.8 0.8
v 0.3 0.8 0.8
v -0.2 1 1.5
v 0.2 1 1.5
v -0.4 1 1.3
v -0.2 1 1.3
v 0.2 1 1.3
v 0.4 1 1.3
v -0.4 1 1
v -0.3 1 1
v 0.3 1 1
v 0.4 1 1
v -0.3 1 0.9
v 0.3 1 0.9
v -0.4 1 0.7
v -0.3 1 0.7
v 0.3 1 0.7
v 0.4 1 0.7
v -0.4 0.1 0.7
v -0.2 0.1 0.7
v 0.2 0.1 0.7
v 0.4 0.1 0.7
v -0.4 0.1 0.6
v -0.2 0.1 0.6
v 0.2 0.1 0.6
v 0.4 0.1 0.6
v -0.4 0.1 -0.4
v -0.2 0.1 -0.4
v 0.2 0.1 -0.4
v 0.4 0.1 -0.4
v -0.4 0.1 -0.5
v -0.2 0.1 -0.5
v 0.2 0.1 -0.5
v 0.4 0.1 -0.5
v -0.4 1.2 0.4
v 0.4 1.2 0.4
v -0.4 1.2 -0.7
v -0.1 1.2 -0.7
v 0.1 1.2 -0.7
v 0.4 1.2 -0.7
v -0.2 1.3 1.5
v -0.1 1.3 1.5
v 0.1 1.3 1.5
v 0.2 1.3 1.5
v -0.1 1.3 1.4
v 0.1 1.3 1.4
v -0.4 1.3 1.3
v -0.2 1.3 1.3
v 0.2 1.3 1.3
v 0.4 1.3 1.3
v -0.4 1.3 1.1
v -0.3 1.3 1.1
v -0.2 1.3 1.1
v -0.1 1.3 1.1
v 0.1 1.3 1.1
v 0.2 1.3 1.1
v 0.3 1.3 1.1
v 0.4 1.3 1.1
v -0.1 1.4 1.5
v 0.1 1.4 1.5
v -0.1 1.4 1.4
v 0.1 1.4 1.4
v -0.1 1.4 1.1
v 0.1 1.4 1.1
v -0.1 1.6 -0.7
v 0.1 1.6 -0.7
v -0.1 1.6 -0.9
v 0.1 1.6 -0.9
v -0.4 1.7 1.1
v 0.4 1.7 1.1
v -0.4 1.7 0.9
v -0.3 1.7 0.9
v -0.2 1.7 0.9
v -0.1 1.7 0.9
v 0.1 1.7 0.9
v 0.2 1.7 0.9
v 0.3 1.7 0.9
v 0.4 1.7 0.9
v -0.4 1.7 0.7
v -0.1 1.7 0.7
v 0.1 1.7 0.7
v 0.4 1.7 0.7
v -0.4 1.7 0.4
v 0.4 1.7 0.4
v -0.4 2 0.9
v -0.1 2 0.9
v 0.1 2 0.9
v 0.4 2 0.9
v -0.4 2 0.7
v -0.1 2 0.7
v 0.1 2 0.7
v 0.4 2 0.7

# faces
f 5/5/1 2/5/1 1/5/1
f 6/5/1 2/5/1 5/5/1
f 7/5/1 4/5/1 3/5/1
f 8/5/1 4/5/1 7/5/1
f 9/5/1 2/5/1 6/5/1
f 10/5/1 2/5/1 9/5/1
f 11/5/1 4/5/1 8/5/1
f 12/5/1 4/5/1 11/5/1
f 13/5/1 2/5/1 10/5/1
f 13/4/1 10/4/1 9/4/1
f 14/5/1 2/5/1 13/5/1
f 15/5/1 11/5/1 8/5/1
f 16/4/1 12/4/1 11/4/1
f 16/5/1 11/5/1 15/5/1
f 17/4/1 14/4/1 13/4/1
f 20/4/1 16/4/1 15/4/1
f 21/5/1 19/5/1 18/5/1
f 21/4/1 18/4/1 17/4/1
f 22/4/1 20/4/1 19/4/1
f 22/5/1 19/5/1 21/5/1
f 24/4/1 13/4/1 9/4/1
f 24/4/1 21/4/1 17/4/1
f 24/4/1 22/4/1 21/4/1
f 24/4/1 17/4/1 13/4/1
f 27/4/1 24/4/1 23/4/1
f 28/5/1 26/5/1 25/5/1
f 29/4/1 27/4/1 26/4/1
f 29/5/1 26/5/1 28/5/1
f 30/4/1 22/4/1 24/4/1
f 30/4/1 27/4/1 29/4/1
f 30/4/1 29/4/1 28/4/1
f 30/4/1 24/4/1 27/4/1
f 31/4/1 12/4/1 16/4/1
f 31/4/1 22/4/1 30/4/1
f 31/4/1 20/4/1 22/4/1
f 31/4/1 16/4/1 20/4/1
f 32/5/1 28/5/1 25/5/1
f 33/4/1 30/4/1 28/4/1
f 33/5/1 28/5/1 32/5/1
f 34/4/1 30/4/1 33/4/1
f 35/5/1 34/5/1 33/5/1
f 36/4/1 30/4/1 34/4/1
f 36/5/1 34/5/1 35/5/1
f 37/5/1 35/5/1 33/5/1
f 38/4/1 36/4/1 35/4/1
f 38/5/1 35/5/1 37/5/1
f 39/4/1 38/4/1 37/4/1
f 40/4/1 30/4/1 36/4/1
f 40/4/1 38/4/1 39/4/1
f 40/4/1 36/4/1 38/4/1
f 41/4/1 30/4/1 40/4/1
f 42/4/1 30/4/1 41/4/1
f 43/4/1 41/4/1 40/4/1
f 44/4/1 41/4/1 43/4/1
f 47/5/1 46/5/1 45/5/1
f 48/5/1 46/5/1 47/5/1
f 50/5/1 47/5/1 45/5/1
f 51/5/1 50/5/1 49/5/1
f 52/5/1 47/5/1 50/5/1
f 52/5/1 50/5/1 51/5/1
f 55/5/1 54/5/1 53/5/1
f 56/5/1 54/5/1 55/5/1
f 59/5/1 58/5/1 57/5/1
f 60/5/1 58/5/1 59/5/1
f 61/5/1 58/5/1 60/5/1
f 62/4/1 61/4/1 60/4/1
f 66/3/1 64/3/1 63/3/1
f 67/5/1 65/5/1 64/5/1
f 67/3/1 64/3/1 66/3/1
f 68/5/1 65/5/1 67/5/1
f 69/4/1 61/4/1 62/4/1
f 70/4/1 61/4/1 69/4/1
f 73/4/1 72/4/1 71/4/1
f 74/4/1 72/4/1 73/4/1
f 79/5/1 76/5/1 75/5/1
f 80/5/1 76/5/1 79/5/1
f 81/5/1 78/5/1 77/5/1
f 82/5/1 78/5/1 81/5/1
f 83/5/1 78/5/1 82/5/1
f 84/5/1 78/5/1 83/5/1
f 85/5/1 76/5/1 80/5/1
f 86/5/1 76/5/1 85/5/1
f 87/5/1 83/5/1 82/5/1
f 88/4/1 84/4/1 83/4/1
f 88/5/1 83/5/1 87/5/1
f 89/4/1 84/4/1 88/4/1
f 90/5/2 91/5/2 94/5/2
f 94/5/2 91/5/2 95/5/2
f 92/5/2 93/5/2 96/5/2
f 96/5/2 93/5/2 97/5/2
f 97/5/2 93/5/2 98/5/2
f 98/5/2 93/5/2 99/5/2
f 95/5/2 91/5/2 100/5/2
f 100/5/2 91/5/2 101/5/2
f 97/5/2 98/5/2 102/5/2
f 98/4/2 99/4/2 103/4/2
f 102/5/2 98/5/2 103/5/2
f 103/4/2 99/4/2 104/4/2
f 105/4/2 106/4/2 107/4/2
f 107/4/2 106/4/2 108/4/2
f 109/5/2 110/5/2 111/5/2
f 111/5/2 110/5/2 112/5/2
f 112/5/2 110/5/2 113/5/2
f 112/4/2 113/4/2 114/4/2
f 115/3/2 116/3/2 118/3/2
f 116/5/2 117/5/2 119/5/2
f 118/3/2 116/3/2 119/3/2
f 119/5/2 117/5/2 120/5/2
f 114/4/2 113/4/2 121/4/2
f 121/4/2 113/4/2 122/4/2
f 123/5/2 124/5/2 125/5/2
f 125/5/2 124/5/2 126/5/2
f 127/5/2 128/5/2 129/5/2
f 129/5/2 128/5/2 130/5/2
f 127/5/2 129/5/2 132/5/2
f 131/5/2 132/5/2 133/5/2
f 132/5/2 129/5/2 134/5/2
f 133/5/2 132/5/2 134/5/2
f 135/5/2 136/5/2 139/5/2
f 139/5/2 136/5/2 140/5/2
f 137/5/2 138/5/2 141/5/2
f 141/5/2 138/5/2 142/5/2
f 140/5/2 136/5/2 143/5/2
f 143/5/2 136/5/2 144/5/2
f 142/5/2 138/5/2 145/5/2
f 145/5/2 138/5/2 146/5/2
f 144/5/2 136/5/2 147/5/2
f 143/4/2 144/4/2 147/4/2
f 147/5/2 136/5/2 148/5/2
f 142/5/2 145/5/2 149/5/2
f 145/4/2 146/4/2 150/4/2
f 149/5/2 145/5/2 150/5/2
f 147/4/2 148/4/2 151/4/2
f 149/4/2 150/4/2 154/4/2
f 152/5/2 153/5/2 155/5/2
f 151/4/2 152/4/2 155/4/2
f 153/4/2 154/4/2 156/4/2
f 155/5/2 153/5/2 156/5/2
f 143/4/2 147/4/2 158/4/2
f 151/4/2 155/4/2 158/4/2
f 155/4/2 156/4/2 158/4/2
f 147/4/2 151/4/2 158/4/2
f 157/4/2 158/4/2 161/4/2
f 159/5/2 160/5/2 162/5/2
f 160/4/2 161/4/2 163/4/2
f 162/5/2 160/5/2 163/5/2
f 158/4/2 156/4/2 164/4/2
f 163/4/2 161/4/2 164/4/2
f 162/4/2 163/4/2 164/4/2
f 161/4/2 158/4/2 164/4/2
f 150/4/2 146/4/2 165/4/2
f 164/4/2 156/4/2 165/4/2
f 156/4/2 154/4/2 165/4/2
f 154/4/2 150/4/2 165/4/2
f 159/5/2 162/5/2 166/5/2
f 162/4/2 164/4/2 167/4/2
f 166/5/2 162/5/2 167/5/2
f 167/4/2 164/4/2 168/4/2
f 167/5/2 168/5/2 169/5/2
f 168/4/2 164/4/2 170/4/2
f 169/5/2 168/5/2 170/5/2
f 167/5/2 169/5/2 171/5/2
f 169/4/2 170/4/2 172/4/2
f 171/5/2 169/5/2 172/5/2
f 171/4/2 172/4/2 173/4/2
f 170/4/2 164/4/2 174/4/2
f 173/4/2 172/4/2 174/4/2
f 172/4/2 170/4/2 174/4/2
f 174/4/2 164/4/2 175/4/2
f 175/4/2 164/4/2 176/4/2
f 174/4/2 175/4/2 177/4/2
f 177/4/2 175/4/2 178/4/2
f 181/5/3 180/5/3 179/5/3
f 183/5/3 181/5/3 179/5/3
f 183/3/3 182/3/3 181/3/3
f 184/3/3 182/3/3 183/3/3
f 185/5/3 183/5/3 179/5/3
f 186/5/3 183/5/3 185/5/3
f 189/5/3 188/5/3 187/5/3
f 190/5/3 188/5/3 189/5/3
f 193/5/3 192/5/3 191/5/3
f 194/5/3 192/5/3 193/5/3
f 198/5/3 196/5/3 195/5/3
f 199/5/3 196/5/3 198/5/3
f 200/4/3 197/4/3 196/4/3
f 200/5/3 196/5/3 199/5/3
f 201/4/3 197/4/3 200/4/3
f 202/1/3 199/1/3 198/1/3
f 203/5/3 200/5/3 199/5/3
f 203/1/3 199/1/3 202/1/3
f 203/5/3 201/5/3 200/5/3
f 204/5/3 203/5/3 202/5/3
f 205/5/3 201/5/3 203/5/3
f 205/5/3 203/5/3 204/5/3
f 206/5/3 201/5/3 205/5/3
f 207/4/3 197/4/3 201/4/3
f 207/5/3 201/5/3 206/5/3
f 209/5/3 206/5/3 205/5/3
f 210/4/3 207/4/3 206/4/3
f 210/5/3 206/5/3 209/5/3
f 211/4/3 197/4/3 207/4/3
f 211/4/3 207/4/3 210/4/3
f 212/5/3 209/5/3 208/5/3
f 212/5/3 210/5/3 209/5/3
f 212/5/3 211/5/3 210/5/3
f 213/5/3 211/5/3 212/5/3
f 214/1/3 213/1/3 212/1/3
f 215/5/3 211/5/3 213/5/3
f 215/1/3 213/1/3 214/1/3
f 216/5/3 211/5/3 215/5/3
f 217/4/3 197/4/3 211/4/3
f 217/5/3 211/5/3 216/5/3
f 218/5/3 216/5/3 215/5/3
f 218/5/3 215/5/3 214/5/3
f 219/4/3 217/4/3 216/4/3
f 219/5/3 216/5/3 218/5/3
f 220/4/3 197/4/3 217/4/3
f 220/4/3 217/4/3 219/4/3
f 225/4/3 222/4/3 221/4/3
f 226/4/3 222/4/3 225/4/3
f 227/2/3 226/2/3 225/2/3
f 228/4/3 222/4/3 226/4/3
f 228/2/3 226/2/3 227/2/3
f 229/4/3 228/4/3 227/4/3
f 230/4/3 222/4/3 228/4/3
f 230/4/3 228/4/3 229/4/3
f 233/4/3 232/4/3 231/4/3
f 234/4/3 232/4/3 233/4/3
f 235/5/3 224/5/3 223/5/3
f 236/5/3 224/5/3 235/5/3
f 237/2/3 234/2/3 233/2/3
f 238/4/3 232/4/3 234/4/3
f 238/2/3 234/2/3 237/2/3
f 239/4/3 238/4/3 237/4/3
f 240/4/3 232/4/3 238/4/3
f 240/4/3 238/4/3 239/4/3
f 243/5/3 242/5/3 241/5/3
f 244/5/3 242/5/3 243/5/3
f 249/4/3 248/4/3 247/4/3
f 250/4/3 248/4/3 249/4/3
f 251/5/3 246/5/3 245/5/3
f 252/5/3 246/5/3 251/5/3
f 257/5/3 254/5/3 253/5/3
f 258/5/3 254/5/3 257/5/3
f 259/4/3 256/4/3 255/4/3
f 260/4/3 256/4/3 259/4/3
f 264/5/3 262/5/3 261/5/3
f 264/4/3 263/4/3 262/4/3
f 265/4/3 263/4/3 264/4/3
f 266/4/3 263/4/3 265/4/3
f 267/5/3 264/5/3 261/5/3
f 267/5/3 265/5/3 264/5/3
f 268/5/3 265/5/3 267/5/3
f 270/5/3 265/5/3 268/5/3
f 271/5/3 270/5/3 269/5/3
f 272/5/3 265/5/3 270/5/3
f 272/5/3 270/5/3 271/5/3
f 274/5/3 271/5/3 269/5/3
f 275/4/3 273/4/3 272/4/3
f 275/5/3 271/5/3 274/5/3
f 275/4/3 272/4/3 271/4/3
f 276/4/3 273/4/3 275/4/3
f 279/5/3 278/5/3 277/5/3
f 280/5/3 278/5/3 279/5/3
f 283/5/3 282/5/3 281/5/3
f 284/5/3 282/5/3 283/5/3
f 288/5/3 286/5/3 285/5/3
f 288/4/3 287/4/3 286/4/3
f 289/4/3 287/4/3 288/4/3
f 290/5/3 288/5/3 285/5/3
f 290/5/3 289/5/3 288/5/3
f 291/5/3 289/5/3 290/5/3
f 294/5/3 293/5/3 292/5/3
f 295/5/3 293/5/3 294/5/3
f 296/5/3 294/5/3 292/5/3
f 297/4/3 295/4/3 294/4/3
f 297/5/3 294/5/3 296/5/3
f 298/4/3 295/4/3 297/4/3
f 301/4/3 300/4/3 299/4/3
f 302/4/3 300/4/3 301/4/3
f 303/4/4 304/4/4 305/4/4
f 305/4/4 304/4/4 306/4/4
f 307/4/4 308/4/4 309/4/4
f 309/4/4 308/4/4 310/4/4
f 311/5/4 312/5/4 316/5/4
f 312/4/4 313/4/4 316/4/4
f 316/4/4 313/4/4 317/4/4
f 311/5/4 316/5/4 318/5/4
f 316/5/4 317/5/4 318/5/4
f 318/5/4 317/5/4 319/5/4
f 320/5/4 321/5/4 322/5/4
f 322/5/4 321/5/4 323/5/4
f 320/5/4 322/5/4 324/5/4
f 322/4/4 323/4/4 325/4/4
f 324/5/4 322/5/4 325/5/4
f 325/4/4 323/4/4 326/4/4
f 314/4/4 315/4/4 327/4/4
f 327/4/4 315/4/4 328/4/4
f 329/5/4 330/5/4 332/5/4
f 330/4/4 331/4/4 333/4/4
f 332/5/4 330/5/4 333/5/4
f 333/4/4 331/4/4 334/4/4
f 334/4/4 331/4/4 335/4/4
f 334/5/4 335/5/4 336/5/4
f 335/4/4 331/4/4 337/4/4
f 336/5/4 335/5/4 337/5/4
f 337/4/4 331/4/4 338/4/4
f 338/4/4 331/4/4 339/4/4
f 334/5/4 336/5/4 340/5/4
f 334/5/4 340/5/4 346/5/4
f 340/5/4 341/5/4 346/5/4
f 342/4/4 343/4/4 347/4/4
f 341/4/4 342/4/4 347/4/4
f 346/5/4 341/5/4 347/5/4
f 344/5/4 345/5/4 348/5/4
f 345/4/4 346/4/4 349/4/4
f 348/5/4 345/5/4 349/5/4
f 346/4/4 347/4/4 349/4/4
f 347/4/4 343/4/4 350/4/4
f 349/4/4 347/4/4 350/4/4
f 351/5/4 352/5/4 354/5/4
f 352/4/4 353/4/4 355/4/4
f 354/5/4 352/5/4 355/5/4
f 355/4/4 353/4/4 356/4/4
f 361/5/5 358/5/5 357/5/5
f 362/5/5 358/5/5 361/5/5
f 363/5/5 360/5/5 359/5/5
f 364/5/5 360/5/5 363/5/5
f 369/5/5 366/5/5 365/5/5
f 370/5/5 366/5/5 369/5/5
f 371/5/5 368/5/5 367/5/5
f 372/5/5 368/5/5 371/5/5
f 377/5/5 374/5/5 373/5/5
f 378/5/5 374/5/5 377/5/5
f 381/4/5 376/4/5 375/4/5
f 382/5/5 377/5/5 376/5/5
f 382/4/5 376/4/5 381/4/5
f 382/5/5 378/5/5 377/5/5
f 382/5/5 379/5/5 378/5/5
f 383/4/5 380/4/5 379/4/5
f 383/5/5 379/5/5 382/5/5
f 384/4/5 380/4/5 383/4/5
f 385/5/5 382/5/5 381/5/5
f 385/5/5 383/5/5 382/5/5
f 385/5/5 384/5/5 383/5/5
f 386/5/5 384/5/5 385/5/5
f 387/5/5 384/5/5 386/5/5
f 388/5/5 384/5/5 387/5/5
f 389/5/5 387/5/5 386/5/5
f 390/5/5 387/5/5 389/5/5
f 391/4/5 386/4/5 385/4/5
f 392/5/5 389/5/5 386/5/5
f 392/4/5 386/4/5 391/4/5
f 393/4/5 390/4/5 389/4/5
f 393/5/5 389/5/5 392/5/5
f 394/5/5 387/5/5 390/5/5
f 394/4/5 390/4/5 393/4/5
f 395/4/5 388/4/5 387/4/5
f 395/5/5 387/5/5 394/5/5
f 396/4/5 388/4/5 395/4/5
f 397/4/5 394/4/5 393/4/5
f 398/4/5 394/4/5 397/4/5
f 399/5/5 398/5/5 397/5/5
f 400/5/5 398/5/5 399/5/5
f 403/5/5 402/5/5 401/5/5
f 404/5/5 402/5/5 403/5/5
f 407/5/5 406/5/5 405/5/5
f 408/5/5 406/5/5 407/5/5
f 413/4/5 410/4/5 409/4/5
f 414/4/5 410/4/5 413/4/5
f 415/4/5 412/4/5 411/4/5
f 416/4/5 412/4/5 415/4/5
f 419/5/5 418/5/5 417/5/5
f 420/5/5 418/5/5 419/5/5
f 424/5/5 422/5/5 421/5/5
f 425/5/5 422/5/5 424/5/5
f 427/5/5 424/5/5 423/5/5
f 427/5/5 426/5/5 425/5/5
f 427/5/5 425/5/5 424/5/5
f 428/5/5 426/5/5 427/5/5
f 429/5/5 426/5/5 428/5/5
f 430/5/5 426/5/5 429/5/5
f 431/4/5 428/4/5 427/4/5
f 431/5/5 429/5/5 428/5/5
f 432/4/5 430/4/5 429/4/5
f 432/5/5 429/5/5 431/5/5
f 433/4/5 431/4/5 427/4/5
f 434/4/5 431/4/5 433/4/5
f 435/4/5 430/4/5 432/4/5
f 436/4/5 430/4/5 435/4/5
f 437/5/6 438/5/6 441/5/6
f 441/5/6 438/5/6 442/5/6
f 439/5/6 440/5/6 443/5/6
f 443/5/6 440/5/6 444/5/6
f 445/5/6 446/5/6 449/5/6
f 449/5/6 446/5/6 450/5/6
f 447/5/6 448/5/6 451/5/6
f 451/5/6 448/5/6 452/5/6
f 453/4/6 454/4/6 455/4/6
f 455/4/6 454/4/6 456/4/6
f 456/4/6 454/4/6 457/4/6
f 457/4/6 454/4/6 458/4/6
f 459/5/6 460/5/6 463/5/6
f 461/5/6 462/5/6 464/5/6
f 459/5/6 463/5/6 466/5/6
f 464/5/6 462/5/6 467/5/6
f 465/5/6 466/5/6 469/5/6
f 469/5/6 466/5/6 470/5/6
f 466/5/6 463/5/6 471/5/6
f 470/5/6 466/5/6 471/5/6
f 471/5/6 463/5/6 472/5/6
f 467/5/6 468/5/6 473/5/6
f 464/5/6 467/5/6 473/5/6
f 473/5/6 468/5/6 474/5/6
f 474/5/6 468/5/6 475/5/6
f 475/5/6 468/5/6 476/5/6
f 477/3/6 478/3/6 479/3/6
f 479/3/6 478/3/6 480/3/6
f 479/5/6 480/5/6 481/5/6
f 481/5/6 480/5/6 482/5/6
f 483/4/6 484/4/6 485/4/6
f 485/4/6 484/4/6 486/4/6
f 487/4/6 488/4/6 489/4/6
f 489/4/6 488/4/6 490/4/6
f 490/4/6 488/4/6 491/4/6
f 491/4/6 488/4/6 492/4/6
f 492/4/6 488/4/6 493/4/6
f 493/4/6 488/4/6 494/4/6
f 494/4/6 488/4/6 495/4/6
f 495/4/6 488/4/6 496/4/6
f 492/4/6 493/4/6 498/4/6
f 498/4/6 493/4/6 499/4/6
f 497/4/6 498/4/6 501/4/6
f 499/4/6 500/4/6 501/4/6
f 498/4/6 499/4/6 501/4/6
f 501/4/6 500/4/6 502/4/6
f 503/4/6 504/4/6 507/4/6
f 507/4/6 504/4/6 508/4/6
f 505/4/6 506/4/6 509/4/6
f 509/4/6 506/4/6 510/4/6
