# MagicaVoxel @ Ephtracy

# group
o 

# material
mtllib tree.mtl
usemtl palette

# normals
vn -1 0 0
vn 1 0 0
vn 0 0 1
vn 0 0 -1
vn 0 -1 0
vn 0 1 0

# texcoords
vt 0.111328 0.5
vt 0.115234 0.5
vt 0.119141 0.5
vt 0.123047 0.5

# verts
v -0.8 1.4 0.8
v -0.8 1.4 -0.2
v -0.8 1.4 -0.8
v -0.8 1.6 0.8
v -0.8 1.6 -0.2
v -0.8 1.9 0.8
v -0.8 1.9 0.4
v -0.8 1.9 -0.1
v -0.8 1.9 -0.8
v -0.8 2.1 0.8
v -0.8 2.1 0.4
v -0.8 2.1 -0.1
v -0.8 2.1 -0.8
v -0.8 2.3 0.4
v -0.8 2.3 -0.3
v -0.8 2.3 -0.7
v -0.8 2.3 -0.8
v -0.8 2.5 0.7
v -0.8 2.5 0.4
v -0.8 2.5 0.3
v -0.8 2.5 -0.1
v -0.8 2.5 -0.3
v -0.8 2.5 -0.5
v -0.8 2.5 -0.7
v -0.8 2.5 -0.8
v -0.8 2.7 0.7
v -0.8 2.7 0.3
v -0.8 2.7 -0.1
v -0.8 2.7 -0.5
v -0.8 3 0.3
v -0.8 3 -0.1
v -0.8 3 -0.7
v -0.8 3 -0.8
v -0.8 3.2 0.3
v -0.8 3.2 -0.1
v -0.8 3.2 -0.7
v -0.8 3.2 -0.8
v -0.8 3.4 0.8
v -0.8 3.4 0.6
v -0.8 3.5 -5.96046e-08
v -0.8 3.5 -0.7
v -0.8 3.6 0.8
v -0.8 3.6 0.6
v -0.8 3.7 -5.96046e-08
v -0.8 3.7 -0.7
v -0.8 4 0.8
v -0.8 4 -0.8
v -0.4 0 0.4
v -0.4 0 -0.2
v -0.4 0 -0.4
v -0.4 0.2 0.4
v -0.4 0.2 -5.96046e-08
v -0.4 0.3 0.4
v -0.4 0.3 0.3
v -0.4 0.7 0.4
v -0.4 0.7 0.3
v -0.4 1 -5.96046e-08
v -0.4 1 -0.2
v -0.4 1.2 -5.96046e-08
v -0.4 1.2 -0.2
v -0.4 1.4 0.4
v -0.4 1.4 -5.96046e-08
v -0.4 1.4 -0.2
v -0.4 1.4 -0.4
v 0.4 0 0.4
v 0.4 0 0.2
v 0.4 0 -5.96046e-08
v 0.4 0 -0.2
v 0.4 0 -0.4
v 0.4 0.4 0.2
v 0.4 0.4 -5.96046e-08
v 0.4 0.6 0.2
v 0.4 0.6 -5.96046e-08
v 0.4 1.2 -0.2
v 0.4 1.2 -0.4
v 0.4 1.4 0.4
v 0.4 1.4 0.2
v 0.4 1.4 -5.96046e-08
v 0.4 1.4 -0.4
v 0.8 1.4 0.8
v 0.8 1.4 0.2
v 0.8 1.4 -0.5
v 0.8 1.4 -0.8
v 0.8 1.6 0.2
v 0.8 1.6 -0.5
v 0.8 1.7 0.8
v 0.8 1.7 0.4
v 0.8 1.9 0.8
v 0.8 1.9 0.4
v 0.8 1.9 -0.1
v 0.8 1.9 -0.8
v 0.8 2.1 -0.1
v 0.8 2.1 -0.8
v 0.8 2.2 0.7
v 0.8 2.2 -0.4
v 0.8 2.4 0.7
v 0.8 2.4 -0.4
v 0.8 2.6 -0.1
v 0.8 2.6 -0.8
v 0.8 2.8 0.8
v 0.8 2.8 0.5
v 0.8 2.8 -0.1
v 0.8 2.8 -0.8
v 0.8 3 0.8
v 0.8 3 0.5
v 0.8 3.3 0.6
v 0.8 3.3 0.2
v 0.8 3.3 -0.2
v 0.8 3.3 -0.8
v 0.8 3.5 0.8
v 0.8 3.5 0.6
v 0.8 3.5 0.4
v 0.8 3.5 0.2
v 0.8 3.5 -0.2
v 0.8 3.5 -0.8
v 0.8 3.7 0.8
v 0.8 3.7 0.4
v 0.8 3.7 -0.6
v 0.8 3.7 -0.8
v 0.8 3.9 -0.6
v 0.8 3.9 -0.8
v 0.8 4 0.8
v 0.8 4 -0.8
v -0.8 1.4 0.8
v -0.8 1.6 0.8
v -0.8 1.9 0.8
v -0.8 2.1 0.8
v -0.8 3.4 0.8
v -0.8 3.6 0.8
v -0.8 4 0.8
v -0.7 2.5 0.8
v -0.7 2.7 0.8
v -0.5 1.9 0.8
v -0.5 2.1 0.8
v -0.5 3.4 0.8
v -0.5 3.6 0.8
v -0.3 2.3 0.8
v -0.3 2.5 0.8
v -0.3 3 0.8
v -0.3 3.2 0.8
v -0.1 2.5 0.8
v -0.1 2.7 0.8
v 0.2 1.4 0.8
v 0.2 1.6 0.8
v 0.3 1.7 0.8
v 0.3 1.9 0.8
v 0.3 2.8 0.8
v 0.3 3 0.8
v 0.3 3.5 0.8
v 0.3 3.7 0.8
v 0.5 2.3 0.8
v 0.5 2.5 0.8
v 0.5 3 0.8
v 0.5 3.2 0.8
v 0.8 1.4 0.8
v 0.8 1.7 0.8
v 0.8 1.9 0.8
v 0.8 2.8 0.8
v 0.8 3 0.8
v 0.8 3.5 0.8
v 0.8 3.7 0.8
v 0.8 4 0.8
v -0.4 0 0.4
v -0.4 0.2 0.4
v -0.4 0.3 0.4
v -0.4 0.7 0.4
v -0.4 1.4 0.4
v -0.3 0.3 0.4
v -0.3 0.7 0.4
v -0.2 0 0.4
v -0.2 0.2 0.4
v -0.1 0.6 0.4
v -0.1 1.4 0.4
v 5.96046e-08 0 0.4
v 5.96046e-08 0.6 0.4
v 0.1 0.8 0.4
v 0.1 1.4 0.4
v 0.2 0 0.4
v 0.2 0.8 0.4
v 0.4 0 0.4
v 0.4 1.4 0.4
v -0.4 0 -0.4
v -0.4 1.4 -0.4
v -0.3 0 -0.4
v -0.3 0.4 -0.4
v -0.3 0.6 -0.4
v -0.3 1.2 -0.4
v -0.1 0 -0.4
v -0.1 0.4 -0.4
v -0.1 0.6 -0.4
v -0.1 1.2 -0.4
v 0.1 1 -0.4
v 0.1 1.4 -0.4
v 0.2 0 -0.4
v 0.2 1 -0.4
v 0.3 1.2 -0.4
v 0.3 1.4 -0.4
v 0.4 0 -0.4
v 0.4 1.2 -0.4
v 0.4 1.4 -0.4
v -0.8 1.4 -0.8
v -0.8 1.9 -0.8
v -0.8 2.1 -0.8
v -0.8 2.3 -0.8
v -0.8 2.5 -0.8
v -0.8 3 -0.8
v -0.8 3.2 -0.8
v -0.8 4 -0.8
v -0.7 1.9 -0.8
v -0.7 2.1 -0.8
v -0.6 2.7 -0.8
v -0.6 2.9 -0.8
v -0.5 1.4 -0.8
v -0.5 1.6 -0.8
v -0.5 1.9 -0.8
v -0.5 2.1 -0.8
v -0.5 3.4 -0.8
v -0.5 3.6 -0.8
v -0.4 2.7 -0.8
v -0.4 2.9 -0.8
v -0.3 1.9 -0.8
v -0.3 2.1 -0.8
v -0.2 3 -0.8
v -0.2 3.2 -0.8
v 0.1 3.4 -0.8
v 0.1 3.6 -0.8
v 0.3 1.9 -0.8
v 0.3 2.1 -0.8
v 0.4 1.4 -0.8
v 0.4 1.6 -0.8
v 0.5 2.3 -0.8
v 0.5 2.5 -0.8
v 0.5 2.6 -0.8
v 0.5 2.8 -0.8
v 0.5 3.3 -0.8
v 0.5 3.5 -0.8
v 0.5 3.7 -0.8
v 0.5 3.9 -0.8
v 0.8 1.4 -0.8
v 0.8 1.9 -0.8
v 0.8 2.1 -0.8
v 0.8 2.6 -0.8
v 0.8 2.8 -0.8
v 0.8 3.3 -0.8
v 0.8 3.5 -0.8
v 0.8 3.7 -0.8
v 0.8 3.9 -0.8
v 0.8 4 -0.8
v -0.4 0 0.4
v -0.2 0 0.4
v 5.96046e-08 0 0.4
v 0.2 0 0.4
v 0.4 0 0.4
v -0.3 0 0.3
v -0.2 0 0.3
v 5.96046e-08 0 0.3
v 0.2 0 0.3
v -0.2 0 0.2
v 0.2 0 0.2
v 0.3 0 0.2
v 0.4 0 0.2
v 0.3 0 -5.96046e-08
v 0.4 0 -5.96046e-08
v -0.4 0 -0.2
v -0.3 0 -0.2
v -0.2 0 -0.2
v 0.2 0 -0.2
v 0.3 0 -0.2
v 0.4 0 -0.2
v -0.3 0 -0.3
v -0.1 0 -0.3
v 0.2 0 -0.3
v 0.3 0 -0.3
v -0.4 0 -0.4
v -0.3 0 -0.4
v -0.1 0 -0.4
v 0.2 0 -0.4
v 0.4 0 -0.4
v -0.8 1.4 0.8
v 0.2 1.4 0.8
v 0.8 1.4 0.8
v -0.7 1.4 0.7
v 0.2 1.4 0.7
v -0.4 1.4 0.4
v -0.1 1.4 0.4
v 0.1 1.4 0.4
v 0.4 1.4 0.4
v 0.4 1.4 0.2
v 0.7 1.4 0.2
v 0.8 1.4 0.2
v -0.4 1.4 -5.96046e-08
v 0.4 1.4 -5.96046e-08
v -0.8 1.4 -0.2
v -0.7 1.4 -0.2
v -0.4 1.4 -0.2
v -0.4 1.4 -0.4
v 0.1 1.4 -0.4
v 0.3 1.4 -0.4
v 0.4 1.4 -0.4
v 0.7 1.4 -0.5
v 0.8 1.4 -0.5
v -0.5 1.4 -0.7
v 0.4 1.4 -0.7
v -0.8 1.4 -0.8
v -0.5 1.4 -0.8
v 0.4 1.4 -0.8
v 0.8 1.4 -0.8
v -0.8 4 0.8
v 0.8 4 0.8
v -0.6 4 0.6
v -0.1 4 0.6
v 0.1 4 0.6
v 0.6 4 0.6
v -0.4 4 0.4
v -0.1 4 0.4
v 0.1 4 0.4
v 0.6 4 0.4
v -0.6 4 0.2
v -0.4 4 0.2
v -0.2 4 0.2
v 0.2 4 0.2
v 0.4 4 0.2
v 0.6 4 0.2
v 5.96046e-08 4 -5.96046e-08
v 0.2 4 -5.96046e-08
v -0.6 4 -0.1
v -0.4 4 -0.1
v -0.2 4 -0.2
v 5.96046e-08 4 -0.2
v -0.4 4 -0.4
v -0.3 4 -0.4
v -0.2 4 -0.4
v 5.96046e-08 4 -0.4
v 0.2 4 -0.4
v 0.4 4 -0.4
v -0.6 4 -0.6
v -0.3 4 -0.6
v -0.2 4 -0.6
v 5.96046e-08 4 -0.6
v 0.2 4 -0.6
v 0.6 4 -0.6
v -0.8 4 -0.8
v 0.8 4 -0.8

# faces
f 4/3/1 2/3/1 1/3/1
f 5/2/1 3/2/1 2/2/1
f 5/3/1 2/3/1 4/3/1
f 6/2/1 5/2/1 4/2/1
f 7/2/1 5/2/1 6/2/1
f 8/2/1 5/2/1 7/2/1
f 9/2/1 3/2/1 5/2/1
f 9/2/1 5/2/1 8/2/1
f 10/3/1 7/3/1 6/3/1
f 11/2/1 8/2/1 7/2/1
f 11/3/1 7/3/1 10/3/1
f 12/3/1 9/3/1 8/3/1
f 12/2/1 8/2/1 11/2/1
f 13/3/1 9/3/1 12/3/1
f 14/2/1 11/2/1 10/2/1
f 14/2/1 12/2/1 11/2/1
f 14/2/1 13/2/1 12/2/1
f 15/2/1 13/2/1 14/2/1
f 16/2/1 13/2/1 15/2/1
f 17/2/1 13/2/1 16/2/1
f 18/2/1 14/2/1 10/2/1
f 19/3/1 15/3/1 14/3/1
f 19/2/1 14/2/1 18/2/1
f 20/3/1 15/3/1 19/3/1
f 21/3/1 15/3/1 20/3/1
f 22/2/1 16/2/1 15/2/1
f 22/3/1 15/3/1 21/3/1
f 23/2/1 16/2/1 22/2/1
f 24/3/1 17/3/1 16/3/1
f 24/2/1 16/2/1 23/2/1
f 25/3/1 17/3/1 24/3/1
f 26/2/1 18/2/1 10/2/1
f 26/3/1 19/3/1 18/3/1
f 26/3/1 20/3/1 19/3/1
f 27/2/1 21/2/1 20/2/1
f 27/3/1 20/3/1 26/3/1
f 28/3/1 23/3/1 22/3/1
f 28/2/1 21/2/1 27/2/1
f 28/3/1 22/3/1 21/3/1
f 29/2/1 25/2/1 24/2/1
f 29/3/1 23/3/1 28/3/1
f 29/2/1 24/2/1 23/2/1
f 30/2/1 27/2/1 26/2/1
f 30/2/1 28/2/1 27/2/1
f 30/2/1 29/2/1 28/2/1
f 31/2/1 29/2/1 30/2/1
f 32/2/1 25/2/1 29/2/1
f 32/2/1 29/2/1 31/2/1
f 33/2/1 25/2/1 32/2/1
f 34/3/1 31/3/1 30/3/1
f 34/2/1 30/2/1 26/2/1
f 35/2/1 32/2/1 31/2/1
f 35/3/1 31/3/1 34/3/1
f 36/3/1 33/3/1 32/3/1
f 36/2/1 32/2/1 35/2/1
f 37/3/1 33/3/1 36/3/1
f 38/2/1 26/2/1 10/2/1
f 38/2/1 35/2/1 34/2/1
f 38/2/1 37/2/1 36/2/1
f 38/2/1 36/2/1 35/2/1
f 38/2/1 34/2/1 26/2/1
f 39/2/1 37/2/1 38/2/1
f 40/2/1 37/2/1 39/2/1
f 41/2/1 37/2/1 40/2/1
f 42/3/1 39/3/1 38/3/1
f 43/2/1 40/2/1 39/2/1
f 43/3/1 39/3/1 42/3/1
f 44/3/1 41/3/1 40/3/1
f 44/2/1 40/2/1 43/2/1
f 44/2/1 43/2/1 42/2/1
f 45/2/1 37/2/1 41/2/1
f 45/3/1 41/3/1 44/3/1
f 46/2/1 44/2/1 42/2/1
f 46/2/1 45/2/1 44/2/1
f 47/2/1 37/2/1 45/2/1
f 47/2/1 45/2/1 46/2/1
f 51/1/1 49/1/1 48/1/1
f 52/1/1 49/1/1 51/1/1
f 53/4/1 52/4/1 51/4/1
f 54/4/1 52/4/1 53/4/1
f 55/1/1 54/1/1 53/1/1
f 56/4/1 52/4/1 54/4/1
f 56/1/1 54/1/1 55/1/1
f 57/1/1 49/1/1 52/1/1
f 57/4/1 52/4/1 56/4/1
f 57/4/1 56/4/1 55/4/1
f 58/4/1 50/4/1 49/4/1
f 58/1/1 49/1/1 57/1/1
f 59/4/1 57/4/1 55/4/1
f 59/4/1 58/4/1 57/4/1
f 60/4/1 50/4/1 58/4/1
f 60/4/1 58/4/1 59/4/1
f 61/4/1 59/4/1 55/4/1
f 62/1/1 60/1/1 59/1/1
f 62/4/1 59/4/1 61/4/1
f 63/4/1 50/4/1 60/4/1
f 63/1/1 60/1/1 62/1/1
f 64/4/1 50/4/1 63/4/1
f 65/4/2 66/4/2 70/4/2
f 66/1/2 67/1/2 70/1/2
f 67/4/2 68/4/2 71/4/2
f 70/1/2 67/1/2 71/1/2
f 65/4/2 70/4/2 72/4/2
f 70/4/2 71/4/2 72/4/2
f 71/4/2 68/4/2 73/4/2
f 72/4/2 71/4/2 73/4/2
f 68/1/2 69/1/2 74/1/2
f 73/4/2 68/4/2 74/4/2
f 74/1/2 69/1/2 75/1/2
f 65/4/2 72/4/2 76/4/2
f 72/1/2 73/1/2 77/1/2
f 76/4/2 72/4/2 77/4/2
f 73/4/2 74/4/2 78/4/2
f 77/1/2 73/1/2 78/1/2
f 74/4/2 75/4/2 78/4/2
f 78/4/2 75/4/2 79/4/2
f 80/2/2 81/2/2 84/2/2
f 81/3/2 82/3/2 84/3/2
f 82/2/2 83/2/2 85/2/2
f 84/3/2 82/3/2 85/3/2
f 80/2/2 84/2/2 86/2/2
f 84/2/2 85/2/2 86/2/2
f 86/2/2 85/2/2 87/2/2
f 86/3/2 87/3/2 88/3/2
f 87/2/2 85/2/2 89/2/2
f 88/3/2 87/3/2 89/3/2
f 89/2/2 85/2/2 90/2/2
f 85/2/2 83/2/2 91/2/2
f 90/2/2 85/2/2 91/2/2
f 89/2/2 90/2/2 92/2/2
f 88/2/2 89/2/2 92/2/2
f 90/3/2 91/3/2 92/3/2
f 92/3/2 91/3/2 93/3/2
f 88/2/2 92/2/2 94/2/2
f 92/2/2 93/2/2 94/2/2
f 94/2/2 93/2/2 95/2/2
f 88/2/2 94/2/2 96/2/2
f 94/3/2 95/3/2 96/3/2
f 95/2/2 93/2/2 97/2/2
f 96/3/2 95/3/2 97/3/2
f 96/2/2 97/2/2 98/2/2
f 97/2/2 93/2/2 99/2/2
f 98/2/2 97/2/2 99/2/2
f 88/2/2 96/2/2 100/2/2
f 96/2/2 98/2/2 100/2/2
f 100/2/2 98/2/2 101/2/2
f 98/3/2 99/3/2 102/3/2
f 101/2/2 98/2/2 102/2/2
f 102/3/2 99/3/2 103/3/2
f 100/3/2 101/3/2 104/3/2
f 101/2/2 102/2/2 105/2/2
f 104/3/2 101/3/2 105/3/2
f 102/2/2 103/2/2 105/2/2
f 104/2/2 105/2/2 106/2/2
f 105/2/2 103/2/2 107/2/2
f 106/2/2 105/2/2 107/2/2
f 107/2/2 103/2/2 108/2/2
f 108/2/2 103/2/2 109/2/2
f 104/2/2 106/2/2 110/2/2
f 106/3/2 107/3/2 111/3/2
f 110/2/2 106/2/2 111/2/2
f 111/3/2 107/3/2 112/3/2
f 107/2/2 108/2/2 113/2/2
f 112/3/2 107/3/2 113/3/2
f 108/3/2 109/3/2 114/3/2
f 113/2/2 108/2/2 114/2/2
f 114/3/2 109/3/2 115/3/2
f 111/3/2 112/3/2 116/3/2
f 110/3/2 111/3/2 116/3/2
f 112/2/2 113/2/2 117/2/2
f 116/3/2 112/3/2 117/3/2
f 114/2/2 115/2/2 117/2/2
f 113/2/2 114/2/2 117/2/2
f 117/2/2 115/2/2 118/2/2
f 118/2/2 115/2/2 119/2/2
f 116/2/2 117/2/2 120/2/2
f 117/2/2 118/2/2 120/2/2
f 118/3/2 119/3/2 120/3/2
f 120/3/2 119/3/2 121/3/2
f 116/2/2 120/2/2 122/2/2
f 120/2/2 121/2/2 122/2/2
f 122/2/2 121/2/2 123/2/2
f 131/2/3 128/2/3 127/2/3
f 132/2/3 128/2/3 131/2/3
f 133/2/3 126/2/3 125/2/3
f 133/3/3 127/3/3 126/3/3
f 134/2/3 131/2/3 127/2/3
f 134/3/3 127/3/3 133/3/3
f 135/2/3 128/2/3 132/2/3
f 135/3/3 129/3/3 128/3/3
f 136/2/3 130/2/3 129/2/3
f 136/3/3 129/3/3 135/3/3
f 137/2/3 131/2/3 134/2/3
f 137/2/3 134/2/3 133/2/3
f 138/3/3 132/3/3 131/3/3
f 138/2/3 131/2/3 137/2/3
f 139/2/3 135/2/3 132/2/3
f 139/2/3 136/2/3 135/2/3
f 140/2/3 136/2/3 139/2/3
f 141/3/3 132/3/3 138/3/3
f 141/3/3 138/3/3 137/3/3
f 142/2/3 139/2/3 132/2/3
f 142/3/3 132/3/3 141/3/3
f 143/3/3 125/3/3 124/3/3
f 144/2/3 137/2/3 133/2/3
f 144/3/3 125/3/3 143/3/3
f 144/2/3 133/2/3 125/2/3
f 145/2/3 144/2/3 143/2/3
f 145/2/3 137/2/3 144/2/3
f 146/2/3 137/2/3 145/2/3
f 147/2/3 139/2/3 142/2/3
f 147/2/3 142/2/3 141/2/3
f 148/3/3 140/3/3 139/3/3
f 148/2/3 139/2/3 147/2/3
f 149/2/3 136/2/3 140/2/3
f 150/2/3 130/2/3 136/2/3
f 150/2/3 136/2/3 149/2/3
f 151/2/3 137/2/3 146/2/3
f 151/3/3 141/3/3 137/3/3
f 152/2/3 147/2/3 141/2/3
f 152/3/3 141/3/3 151/3/3
f 153/3/3 140/3/3 148/3/3
f 153/3/3 148/3/3 147/3/3
f 154/2/3 149/2/3 140/2/3
f 154/3/3 140/3/3 153/3/3
f 155/2/3 145/2/3 143/2/3
f 156/3/3 146/3/3 145/3/3
f 156/2/3 145/2/3 155/2/3
f 157/2/3 151/2/3 146/2/3
f 157/3/3 146/3/3 156/3/3
f 157/2/3 152/2/3 151/2/3
f 158/3/3 153/3/3 147/3/3
f 158/2/3 152/2/3 157/2/3
f 158/2/3 147/2/3 152/2/3
f 159/2/3 154/2/3 153/2/3
f 159/3/3 153/3/3 158/3/3
f 160/3/3 150/3/3 149/3/3
f 160/2/3 154/2/3 159/2/3
f 160/2/3 149/2/3 154/2/3
f 161/2/3 130/2/3 150/2/3
f 161/3/3 150/3/3 160/3/3
f 162/2/3 130/2/3 161/2/3
f 168/4/3 165/4/3 164/4/3
f 168/1/3 166/1/3 165/1/3
f 169/4/3 167/4/3 166/4/3
f 169/1/3 166/1/3 168/1/3
f 170/1/3 164/1/3 163/1/3
f 171/4/3 168/4/3 164/4/3
f 171/1/3 164/1/3 170/1/3
f 171/4/3 169/4/3 168/4/3
f 172/4/3 171/4/3 170/4/3
f 172/4/3 169/4/3 171/4/3
f 173/4/3 167/4/3 169/4/3
f 173/4/3 169/4/3 172/4/3
f 174/4/3 172/4/3 170/4/3
f 175/1/3 173/1/3 172/1/3
f 175/4/3 172/4/3 174/4/3
f 176/1/3 175/1/3 174/1/3
f 176/1/3 173/1/3 175/1/3
f 177/1/3 173/1/3 176/1/3
f 178/1/3 176/1/3 174/1/3
f 179/4/3 177/4/3 176/4/3
f 179/1/3 176/1/3 178/1/3
f 180/4/3 179/4/3 178/4/3
f 181/4/3 177/4/3 179/4/3
f 181/4/3 179/4/3 180/4/3
f 182/4/4 183/4/4 184/4/4
f 184/4/4 183/4/4 185/4/4
f 185/4/4 183/4/4 186/4/4
f 186/4/4 183/4/4 187/4/4
f 184/1/4 185/1/4 188/1/4
f 185/4/4 186/4/4 189/4/4
f 188/1/4 185/1/4 189/1/4
f 186/1/4 187/1/4 190/1/4
f 189/4/4 186/4/4 190/4/4
f 187/4/4 183/4/4 191/4/4
f 190/1/4 187/1/4 191/1/4
f 189/4/4 190/4/4 192/4/4
f 188/4/4 189/4/4 192/4/4
f 190/4/4 191/4/4 192/4/4
f 191/4/4 183/4/4 193/4/4
f 192/4/4 191/4/4 193/4/4
f 188/4/4 192/4/4 194/4/4
f 192/1/4 193/1/4 195/1/4
f 194/4/4 192/4/4 195/4/4
f 194/1/4 195/1/4 196/1/4
f 195/1/4 193/1/4 196/1/4
f 196/1/4 193/1/4 197/1/4
f 194/1/4 196/1/4 198/1/4
f 196/4/4 197/4/4 199/4/4
f 198/1/4 196/1/4 199/1/4
f 199/4/4 197/4/4 200/4/4
f 201/2/4 202/2/4 209/2/4
f 202/3/4 203/3/4 209/3/4
f 203/2/4 204/2/4 210/2/4
f 209/3/4 203/3/4 210/3/4
f 205/2/4 206/2/4 211/2/4
f 211/2/4 206/2/4 212/2/4
f 201/2/4 209/2/4 213/2/4
f 209/2/4 210/2/4 213/2/4
f 213/2/4 210/2/4 214/2/4
f 214/2/4 210/2/4 215/2/4
f 210/2/4 204/2/4 216/2/4
f 215/2/4 210/2/4 216/2/4
f 207/2/4 208/2/4 217/2/4
f 217/2/4 208/2/4 218/2/4
f 211/3/4 212/3/4 219/3/4
f 205/2/4 211/2/4 219/2/4
f 212/2/4 206/2/4 220/2/4
f 219/3/4 212/3/4 220/3/4
f 214/2/4 215/2/4 221/2/4
f 215/3/4 216/3/4 221/3/4
f 216/2/4 204/2/4 222/2/4
f 221/3/4 216/3/4 222/3/4
f 206/3/4 207/3/4 223/3/4
f 220/2/4 206/2/4 223/2/4
f 219/2/4 220/2/4 223/2/4
f 207/2/4 217/2/4 224/2/4
f 223/3/4 207/3/4 224/3/4
f 217/3/4 218/3/4 225/3/4
f 224/2/4 217/2/4 225/2/4
f 223/2/4 224/2/4 225/2/4
f 218/2/4 208/2/4 226/2/4
f 225/3/4 218/3/4 226/3/4
f 214/2/4 221/2/4 227/2/4
f 221/2/4 222/2/4 227/2/4
f 222/2/4 204/2/4 228/2/4
f 227/2/4 222/2/4 228/2/4
f 213/3/4 214/3/4 229/3/4
f 214/2/4 227/2/4 230/2/4
f 229/3/4 214/3/4 230/3/4
f 204/3/4 205/3/4 231/3/4
f 228/2/4 204/2/4 231/2/4
f 205/2/4 219/2/4 232/2/4
f 231/3/4 205/3/4 232/3/4
f 225/2/4 226/2/4 232/2/4
f 223/2/4 225/2/4 232/2/4
f 219/2/4 223/2/4 232/2/4
f 232/2/4 226/2/4 233/2/4
f 233/2/4 226/2/4 234/2/4
f 234/2/4 226/2/4 235/2/4
f 235/2/4 226/2/4 236/2/4
f 226/2/4 208/2/4 237/2/4
f 236/2/4 226/2/4 237/2/4
f 237/2/4 208/2/4 238/2/4
f 229/2/4 230/2/4 239/2/4
f 230/2/4 227/2/4 240/2/4
f 239/2/4 230/2/4 240/2/4
f 227/3/4 228/3/4 240/3/4
f 228/2/4 231/2/4 241/2/4
f 240/3/4 228/3/4 241/3/4
f 231/2/4 232/2/4 241/2/4
f 232/2/4 233/2/4 241/2/4
f 233/3/4 234/3/4 242/3/4
f 241/2/4 233/2/4 242/2/4
f 234/2/4 235/2/4 243/2/4
f 242/3/4 234/3/4 243/3/4
f 235/3/4 236/3/4 244/3/4
f 243/2/4 235/2/4 244/2/4
f 236/2/4 237/2/4 245/2/4
f 244/3/4 236/3/4 245/3/4
f 237/3/4 238/3/4 246/3/4
f 245/2/4 237/2/4 246/2/4
f 238/2/4 208/2/4 247/2/4
f 246/3/4 238/3/4 247/3/4
f 247/2/4 208/2/4 248/2/4
f 254/1/5 250/1/5 249/1/5
f 255/4/5 251/4/5 250/4/5
f 255/1/5 250/1/5 254/1/5
f 256/1/5 252/1/5 251/1/5
f 256/4/5 251/4/5 255/4/5
f 257/4/5 253/4/5 252/4/5
f 257/1/5 252/1/5 256/1/5
f 258/4/5 256/4/5 255/4/5
f 258/4/5 255/4/5 254/4/5
f 258/4/5 257/4/5 256/4/5
f 259/4/5 253/4/5 257/4/5
f 259/4/5 257/4/5 258/4/5
f 260/4/5 253/4/5 259/4/5
f 261/4/5 253/4/5 260/4/5
f 262/4/5 260/4/5 259/4/5
f 262/1/5 261/1/5 260/1/5
f 263/1/5 261/1/5 262/1/5
f 264/1/5 254/1/5 249/1/5
f 265/4/5 258/4/5 254/4/5
f 265/1/5 254/1/5 264/1/5
f 266/1/5 259/1/5 258/1/5
f 266/4/5 258/4/5 265/4/5
f 267/4/5 262/4/5 259/4/5
f 267/1/5 259/1/5 266/1/5
f 267/4/5 263/4/5 262/4/5
f 268/4/5 263/4/5 267/4/5
f 269/4/5 263/4/5 268/4/5
f 270/4/5 265/4/5 264/4/5
f 270/4/5 266/4/5 265/4/5
f 270/4/5 267/4/5 266/4/5
f 270/4/5 268/4/5 267/4/5
f 271/4/5 268/4/5 270/4/5
f 272/4/5 268/4/5 271/4/5
f 273/1/5 269/1/5 268/1/5
f 273/4/5 268/4/5 272/4/5
f 274/4/5 270/4/5 264/4/5
f 275/1/5 271/1/5 270/1/5
f 275/4/5 270/4/5 274/4/5
f 276/4/5 272/4/5 271/4/5
f 276/1/5 271/1/5 275/1/5
f 277/1/5 273/1/5 272/1/5
f 277/4/5 272/4/5 276/4/5
f 278/1/5 269/1/5 273/1/5
f 278/1/5 273/1/5 277/1/5
f 282/3/5 280/3/5 279/3/5
f 283/2/5 281/2/5 280/2/5
f 283/3/5 280/3/5 282/3/5
f 284/2/5 283/2/5 282/2/5
f 285/2/5 283/2/5 284/2/5
f 286/2/5 283/2/5 285/2/5
f 287/2/5 281/2/5 283/2/5
f 287/2/5 283/2/5 286/2/5
f 288/2/5 281/2/5 287/2/5
f 289/2/5 281/2/5 288/2/5
f 290/2/5 281/2/5 289/2/5
f 291/2/5 284/2/5 282/2/5
f 292/2/5 289/2/5 288/2/5
f 293/3/5 282/3/5 279/3/5
f 294/2/5 291/2/5 282/2/5
f 294/3/5 282/3/5 293/3/5
f 295/2/5 291/2/5 294/2/5
f 296/2/5 294/2/5 293/2/5
f 296/2/5 295/2/5 294/2/5
f 299/2/5 289/2/5 292/2/5
f 300/2/5 298/2/5 297/2/5
f 300/2/5 299/2/5 298/2/5
f 300/2/5 289/2/5 299/2/5
f 300/3/5 290/3/5 289/3/5
f 300/2/5 297/2/5 296/2/5
f 301/3/5 290/3/5 300/3/5
f 302/2/5 296/2/5 293/2/5
f 302/2/5 300/2/5 296/2/5
f 302/2/5 301/2/5 300/2/5
f 303/2/5 301/2/5 302/2/5
f 304/2/5 302/2/5 293/2/5
f 305/3/5 303/3/5 302/3/5
f 305/2/5 302/2/5 304/2/5
f 306/2/5 301/2/5 303/2/5
f 306/3/5 303/3/5 305/3/5
f 307/2/5 301/2/5 306/2/5
f 308/2/6 309/2/6 310/2/6
f 310/2/6 309/2/6 311/2/6
f 311/2/6 309/2/6 312/2/6
f 312/2/6 309/2/6 313/2/6
f 310/3/6 311/3/6 314/3/6
f 311/2/6 312/2/6 315/2/6
f 314/3/6 311/3/6 315/3/6
f 312/3/6 313/3/6 316/3/6
f 315/2/6 312/2/6 316/2/6
f 313/2/6 309/2/6 317/2/6
f 316/3/6 313/3/6 317/3/6
f 308/2/6 310/2/6 318/2/6
f 310/3/6 314/3/6 318/3/6
f 315/2/6 316/2/6 319/2/6
f 318/3/6 314/3/6 319/3/6
f 316/2/6 317/2/6 319/2/6
f 314/2/6 315/2/6 319/2/6
f 319/2/6 317/2/6 320/2/6
f 320/2/6 317/2/6 321/2/6
f 321/2/6 317/2/6 322/2/6
f 317/2/6 309/2/6 323/2/6
f 322/2/6 317/2/6 323/2/6
f 320/3/6 321/3/6 324/3/6
f 321/2/6 322/2/6 325/2/6
f 324/3/6 321/3/6 325/3/6
f 308/2/6 318/2/6 326/2/6
f 318/2/6 319/2/6 326/2/6
f 319/2/6 320/2/6 326/2/6
f 326/2/6 320/2/6 327/2/6
f 320/3/6 324/3/6 328/3/6
f 327/2/6 320/2/6 328/2/6
f 324/2/6 325/2/6 329/2/6
f 328/3/6 324/3/6 329/3/6
f 326/3/6 327/3/6 330/3/6
f 327/2/6 328/2/6 330/2/6
f 328/2/6 329/2/6 330/2/6
f 330/2/6 329/2/6 331/2/6
f 331/2/6 329/2/6 332/2/6
f 329/2/6 325/2/6 333/2/6
f 332/2/6 329/2/6 333/2/6
f 325/2/6 322/2/6 334/2/6
f 333/2/6 325/2/6 334/2/6
f 322/3/6 323/3/6 335/3/6
f 334/2/6 322/2/6 335/2/6
f 308/2/6 326/2/6 336/2/6
f 326/3/6 330/3/6 336/3/6
f 330/3/6 331/3/6 336/3/6
f 331/2/6 332/2/6 337/2/6
f 336/3/6 331/3/6 337/3/6
f 332/3/6 333/3/6 338/3/6
f 337/2/6 332/2/6 338/2/6
f 333/2/6 334/2/6 339/2/6
f 338/3/6 333/3/6 339/3/6
f 334/3/6 335/3/6 340/3/6
f 339/2/6 334/2/6 340/2/6
f 335/3/6 323/3/6 341/3/6
f 340/3/6 335/3/6 341/3/6
f 323/2/6 309/2/6 341/2/6
f 308/2/6 336/2/6 342/2/6
f 336/2/6 337/2/6 342/2/6
f 340/2/6 341/2/6 342/2/6
f 338/2/6 339/2/6 342/2/6
f 337/2/6 338/2/6 342/2/6
f 339/2/6 340/2/6 342/2/6
f 341/2/6 309/2/6 343/2/6
f 342/2/6 341/2/6 343/2/6
