# MagicaVoxel @ Ephtracy

# group
o 

# material
mtllib tufts_jumbo.mtl
usemtl palette

# normals
vn -1 0 0
vn 1 0 0
vn 0 0 1
vn 0 0 -1
vn 0 -1 0
vn 0 1 0

# texcoords
vt 0.0800781 0.5
vt 0.0839844 0.5
vt 0.0878906 0.5
vt 0.0917969 0.5

# verts
v -0.8 -1.4 1.6
v -0.8 -1.4 1.2
v -0.8 -1.4 1
v -0.8 -1.2 1.6
v -0.8 -1.2 1.2
v -0.8 -1.2 1
v -0.8 -1.2 0.8
v -0.8 -1.2 0.2
v -0.8 -0.4 0.8
v -0.8 -0.4 0.2
v -0.6 -2 0.8
v -0.6 -2 0.4
v -0.6 -2 -0.4
v -0.6 -2 -0.8
v -0.6 -1.8 0.8
v -0.6 -1.8 0.4
v -0.6 -1.8 -0.4
v -0.6 -1.8 -0.8
v -0.6 -1.6 0.4
v -0.6 -1.6 -0.4
v -0.6 -1.6 -0.8
v -0.6 -1.6 -1
v -0.6 -1.4 1
v -0.6 -1.4 0.8
v -0.6 -1.2 1.4
v -0.6 -1.2 1.2
v -0.6 -1.2 1
v -0.6 -1.2 0.8
v -0.6 -1.2 0.2
v -0.6 -1 1.2
v -0.6 -1 1
v -0.6 -0.8 1.2
v -0.6 -0.8 1
v -0.6 -0.6 -0.8
v -0.6 -0.6 -1
v -0.6 -0.4 1.4
v -0.6 -0.4 1.2
v -0.6 -0.4 0.8
v -0.6 -0.4 0.2
v -0.6 -0.4 0
v -0.6 -0.4 -0.8
v -0.6 -0.2 1.2
v -0.6 -0.2 0
v -0.2 -1.8 1.6
v -0.2 -1.8 1.2
v -0.2 -1.4 1.4
v -0.2 -1.4 1.2
v -0.2 -0.8 1.6
v -0.2 -0.8 1.4
v -0.1 -1.8 -1
v -0.1 -1.8 -1.2
v -0.1 -1.6 -1
v -0.1 -1 -1
v -0.1 -1 -1.2
v 0.2 -2 0.8
v 0.2 -2 0.4
v 0.2 -2 -0.4
v 0.2 -2 -0.8
v 0.2 -1.8 0.8
v 0.2 -1.8 0.4
v 0.2 -1.8 -0.4
v 0.2 -1.8 -0.8
v 0.2 -1.6 0.8
v 0.2 -1.6 0.4
v 0.2 -1.6 -0.4
v 0.2 -1.6 -0.8
v 0.6 -1.4 1.6
v 0.6 -1.4 1.4
v 0.6 -1.2 1.6
v 0.6 -1.2 1.4
v -0.6 -1.4 1.6
v -0.6 -1.4 1.4
v -0.6 -1.2 1.6
v -0.6 -1.2 1.4
v -0.2 -2 0.8
v -0.2 -2 0.4
v -0.2 -2 -0.4
v -0.2 -2 -0.8
v -0.2 -1.8 0.8
v -0.2 -1.8 0.4
v -0.2 -1.8 -0.4
v -0.2 -1.8 -0.8
v -0.2 -1.6 0.8
v -0.2 -1.6 0.4
v -0.2 -1.6 -0.4
v -0.2 -1.6 -0.8
v 0.1 -1.8 -1
v 0.1 -1.8 -1.2
v 0.1 -1.6 -1
v 0.1 -1 -1
v 0.1 -1 -1.2
v 0.2 -1.8 1.6
v 0.2 -1.8 1.2
v 0.2 -1.4 1.4
v 0.2 -1.4 1.2
v 0.2 -0.8 1.6
v 0.2 -0.8 1.4
v 0.6 -2 0.8
v 0.6 -2 0.4
v 0.6 -2 -0.4
v 0.6 -2 -0.8
v 0.6 -1.8 0.8
v 0.6 -1.8 0.4
v 0.6 -1.8 -0.4
v 0.6 -1.8 -0.8
v 0.6 -1.6 0.4
v 0.6 -1.6 -0.4
v 0.6 -1.6 -0.8
v 0.6 -1.6 -1
v 0.6 -1.4 1
v 0.6 -1.4 0.8
v 0.6 -1.2 1.4
v 0.6 -1.2 1.2
v 0.6 -1.2 1
v 0.6 -1.2 0.8
v 0.6 -1.2 0.2
v 0.6 -1 1.2
v 0.6 -1 1
v 0.6 -0.8 1.2
v 0.6 -0.8 1
v 0.6 -0.6 -0.8
v 0.6 -0.6 -1
v 0.6 -0.4 1.4
v 0.6 -0.4 1.2
v 0.6 -0.4 0.8
v 0.6 -0.4 0.2
v 0.6 -0.4 0
v 0.6 -0.4 -0.8
v 0.6 -0.2 1.2
v 0.6 -0.2 0
v 0.8 -1.4 1.6
v 0.8 -1.4 1.2
v 0.8 -1.4 1
v 0.8 -1.2 1.6
v 0.8 -1.2 1.2
v 0.8 -1.2 1
v 0.8 -1.2 0.8
v 0.8 -1.2 0.2
v 0.8 -0.4 0.8
v 0.8 -0.4 0.2
v -0.8 -1.4 1.6
v -0.8 -1.2 1.6
v -0.6 -1.4 1.6
v -0.6 -1.2 1.6
v -0.2 -1.8 1.6
v -0.2 -0.8 1.6
v 0.2 -1.8 1.6
v 0.2 -0.8 1.6
v 0.6 -1.4 1.6
v 0.6 -1.2 1.6
v 0.8 -1.4 1.6
v 0.8 -1.2 1.6
v -0.6 -1.4 1.4
v -0.6 -1.2 1.4
v -0.6 -0.4 1.4
v -0.2 -1.4 1.4
v -0.2 -0.8 1.4
v 0.2 -1.4 1.4
v 0.2 -0.8 1.4
v 0.6 -1.4 1.4
v 0.6 -1.2 1.4
v 0.6 -0.4 1.4
v -0.6 -0.4 1.2
v -0.6 -0.2 1.2
v 0.6 -0.4 1.2
v 0.6 -0.2 1.2
v -0.8 -1.2 0.8
v -0.8 -0.4 0.8
v -0.6 -2 0.8
v -0.6 -1.8 0.8
v -0.6 -1.4 0.8
v -0.6 -1.2 0.8
v -0.6 -0.4 0.8
v -0.2 -2 0.8
v -0.2 -1.8 0.8
v -0.2 -1.6 0.8
v 0.2 -2 0.8
v 0.2 -1.8 0.8
v 0.2 -1.6 0.8
v 0.6 -2 0.8
v 0.6 -1.8 0.8
v 0.6 -1.4 0.8
v 0.6 -1.2 0.8
v 0.6 -0.4 0.8
v 0.8 -1.2 0.8
v 0.8 -0.4 0.8
v -0.6 -2 -0.4
v -0.6 -1.8 -0.4
v -0.6 -1.6 -0.4
v -0.2 -2 -0.4
v -0.2 -1.8 -0.4
v -0.2 -1.6 -0.4
v 0.2 -2 -0.4
v 0.2 -1.8 -0.4
v 0.2 -1.6 -0.4
v 0.6 -2 -0.4
v 0.6 -1.8 -0.4
v 0.6 -1.6 -0.4
v -0.1 -1.8 -1
v -0.1 -1.6 -1
v 0.1 -1.8 -1
v 0.1 -1.6 -1
v -0.2 -1.8 1.2
v -0.2 -1.4 1.2
v 0.2 -1.8 1.2
v 0.2 -1.4 1.2
v -0.8 -1.4 1
v -0.8 -1.2 1
v -0.6 -1.4 1
v -0.6 -1.2 1
v 0.6 -1.4 1
v 0.6 -1.2 1
v 0.8 -1.4 1
v 0.8 -1.2 1
v -0.6 -2 0.4
v -0.6 -1.8 0.4
v -0.6 -1.6 0.4
v -0.2 -2 0.4
v -0.2 -1.8 0.4
v -0.2 -1.6 0.4
v 0.2 -2 0.4
v 0.2 -1.8 0.4
v 0.2 -1.6 0.4
v 0.6 -2 0.4
v 0.6 -1.8 0.4
v 0.6 -1.6 0.4
v -0.8 -1.2 0.2
v -0.8 -0.4 0.2
v -0.6 -1.2 0.2
v -0.6 -0.4 0.2
v 0.6 -1.2 0.2
v 0.6 -0.4 0.2
v 0.8 -1.2 0.2
v 0.8 -0.4 0.2
v -0.6 -0.4 0
v -0.6 -0.2 0
v 0.6 -0.4 0
v 0.6 -0.2 0
v -0.6 -2 -0.8
v -0.6 -1.8 -0.8
v -0.6 -1.6 -0.8
v -0.6 -0.6 -0.8
v -0.6 -0.4 -0.8
v -0.2 -2 -0.8
v -0.2 -1.8 -0.8
v -0.2 -1.6 -0.8
v 0.2 -2 -0.8
v 0.2 -1.8 -0.8
v 0.2 -1.6 -0.8
v 0.6 -2 -0.8
v 0.6 -1.8 -0.8
v 0.6 -1.6 -0.8
v 0.6 -0.6 -0.8
v 0.6 -0.4 -0.8
v -0.6 -1.6 -1
v -0.6 -0.6 -1
v -0.1 -1.6 -1
v -0.1 -1 -1
v 0.1 -1.6 -1
v 0.1 -1 -1
v 0.6 -1.6 -1
v 0.6 -0.6 -1
v -0.1 -1.8 -1.2
v -0.1 -1 -1.2
v 0.1 -1.8 -1.2
v 0.1 -1 -1.2
v -0.6 -2 0.8
v -0.2 -2 0.8
v 0.2 -2 0.8
v 0.6 -2 0.8
v -0.6 -2 0.4
v -0.2 -2 0.4
v 0.2 -2 0.4
v 0.6 -2 0.4
v -0.6 -2 -0.4
v -0.2 -2 -0.4
v 0.2 -2 -0.4
v 0.6 -2 -0.4
v -0.6 -2 -0.8
v -0.2 -2 -0.8
v 0.2 -2 -0.8
v 0.6 -2 -0.8
v -0.2 -1.8 1.6
v 0.2 -1.8 1.6
v -0.2 -1.8 1.2
v 0.2 -1.8 1.2
v -0.1 -1.8 -1
v 0.1 -1.8 -1
v -0.1 -1.8 -1.2
v 0.1 -1.8 -1.2
v -0.2 -1.6 0.8
v 0.2 -1.6 0.8
v -0.6 -1.6 0.4
v -0.2 -1.6 0.4
v 0.2 -1.6 0.4
v 0.6 -1.6 0.4
v -0.6 -1.6 -0.4
v -0.2 -1.6 -0.4
v 0.2 -1.6 -0.4
v 0.6 -1.6 -0.4
v -0.6 -1.6 -0.8
v -0.2 -1.6 -0.8
v 0.2 -1.6 -0.8
v 0.6 -1.6 -0.8
v -0.6 -1.6 -1
v -0.1 -1.6 -1
v 0.1 -1.6 -1
v 0.6 -1.6 -1
v -0.8 -1.4 1.6
v -0.6 -1.4 1.6
v 0.6 -1.4 1.6
v 0.8 -1.4 1.6
v -0.6 -1.4 1.4
v -0.2 -1.4 1.4
v 0.2 -1.4 1.4
v 0.6 -1.4 1.4
v -0.8 -1.4 1.2
v -0.6 -1.4 1.2
v -0.2 -1.4 1.2
v 0.2 -1.4 1.2
v 0.6 -1.4 1.2
v 0.8 -1.4 1.2
v -0.8 -1.4 1
v -0.6 -1.4 1
v 0.6 -1.4 1
v 0.8 -1.4 1
v -0.6 -1.4 0.8
v 0.6 -1.4 0.8
v -0.8 -1.2 0.8
v -0.6 -1.2 0.8
v 0.6 -1.2 0.8
v 0.8 -1.2 0.8
v -0.8 -1.2 0.2
v -0.6 -1.2 0.2
v 0.6 -1.2 0.2
v 0.8 -1.2 0.2
v -0.8 -1.2 1.6
v -0.6 -1.2 1.6
v 0.6 -1.2 1.6
v 0.8 -1.2 1.6
v -0.6 -1.2 1.4
v 0.6 -1.2 1.4
v -0.8 -1.2 1.2
v -0.6 -1.2 1.2
v 0.6 -1.2 1.2
v 0.8 -1.2 1.2
v -0.8 -1.2 1
v -0.6 -1.2 1
v 0.6 -1.2 1
v 0.8 -1.2 1
v -0.1 -1 -1
v 0.1 -1 -1
v -0.1 -1 -1.2
v 0.1 -1 -1.2
v -0.2 -0.8 1.6
v 0.2 -0.8 1.6
v -0.2 -0.8 1.4
v 0.2 -0.8 1.4
v -0.6 -0.6 -0.8
v 0.6 -0.6 -0.8
v -0.6 -0.6 -1
v 0.6 -0.6 -1
v -0.6 -0.4 1.4
v 0.6 -0.4 1.4
v -0.6 -0.4 1.2
v 0.6 -0.4 1.2
v -0.8 -0.4 0.8
v -0.6 -0.4 0.8
v 0.6 -0.4 0.8
v 0.8 -0.4 0.8
v -0.8 -0.4 0.2
v -0.6 -0.4 0.2
v 0.6 -0.4 0.2
v 0.8 -0.4 0.2
v -0.6 -0.4 0
v 0.6 -0.4 0
v -0.6 -0.4 -0.8
v 0.6 -0.4 -0.8
v -0.6 -0.2 1.2
v 0.6 -0.2 1.2
v -0.6 -0.2 0
v 0.6 -0.2 0

# faces
f 4/2/1 2/2/1 1/2/1
f 5/4/1 3/4/1 2/4/1
f 5/2/1 2/2/1 4/2/1
f 6/4/1 3/4/1 5/4/1
f 9/1/1 8/1/1 7/1/1
f 10/1/1 8/1/1 9/1/1
f 15/1/1 12/1/1 11/1/1
f 16/1/1 12/1/1 15/1/1
f 17/1/1 14/1/1 13/1/1
f 18/1/1 14/1/1 17/1/1
f 19/4/1 16/4/1 15/4/1
f 20/4/1 18/4/1 17/4/1
f 21/4/1 18/4/1 20/4/1
f 24/4/1 21/4/1 20/4/1
f 24/4/1 22/4/1 21/4/1
f 24/4/1 20/4/1 19/4/1
f 24/4/1 19/4/1 15/4/1
f 27/4/1 24/4/1 23/4/1
f 28/4/1 22/4/1 24/4/1
f 28/4/1 24/4/1 27/4/1
f 29/4/1 22/4/1 28/4/1
f 30/4/1 27/4/1 26/4/1
f 30/4/1 26/4/1 25/4/1
f 30/4/1 28/4/1 27/4/1
f 31/4/1 28/4/1 30/4/1
f 32/4/1 30/4/1 25/4/1
f 32/3/1 31/3/1 30/3/1
f 33/4/1 28/4/1 31/4/1
f 33/3/1 31/3/1 32/3/1
f 34/4/1 22/4/1 29/4/1
f 35/4/1 22/4/1 34/4/1
f 36/4/1 32/4/1 25/4/1
f 36/4/1 33/4/1 32/4/1
f 37/4/1 33/4/1 36/4/1
f 38/4/1 28/4/1 33/4/1
f 38/4/1 33/4/1 37/4/1
f 39/4/1 34/4/1 29/4/1
f 40/4/1 34/4/1 39/4/1
f 41/4/1 34/4/1 40/4/1
f 42/4/1 38/4/1 37/4/1
f 42/4/1 40/4/1 39/4/1
f 42/4/1 39/4/1 38/4/1
f 43/4/1 40/4/1 42/4/1
f 46/4/1 45/4/1 44/4/1
f 47/4/1 45/4/1 46/4/1
f 48/4/1 46/4/1 44/4/1
f 49/4/1 46/4/1 48/4/1
f 52/1/1 51/1/1 50/1/1
f 53/1/1 51/1/1 52/1/1
f 54/1/1 51/1/1 53/1/1
f 59/1/1 56/1/1 55/1/1
f 60/1/1 56/1/1 59/1/1
f 61/1/1 58/1/1 57/1/1
f 62/1/1 58/1/1 61/1/1
f 63/4/1 60/4/1 59/4/1
f 64/4/1 60/4/1 63/4/1
f 65/4/1 62/4/1 61/4/1
f 66/4/1 62/4/1 65/4/1
f 69/2/1 68/2/1 67/2/1
f 70/2/1 68/2/1 69/2/1
f 71/2/2 72/2/2 73/2/2
f 73/2/2 72/2/2 74/2/2
f 75/1/2 76/1/2 79/1/2
f 79/1/2 76/1/2 80/1/2
f 77/1/2 78/1/2 81/1/2
f 81/1/2 78/1/2 82/1/2
f 79/4/2 80/4/2 83/4/2
f 83/4/2 80/4/2 84/4/2
f 81/4/2 82/4/2 85/4/2
f 85/4/2 82/4/2 86/4/2
f 87/1/2 88/1/2 89/1/2
f 89/1/2 88/1/2 90/1/2
f 90/1/2 88/1/2 91/1/2
f 92/4/2 93/4/2 94/4/2
f 94/4/2 93/4/2 95/4/2
f 92/4/2 94/4/2 96/4/2
f 96/4/2 94/4/2 97/4/2
f 98/1/2 99/1/2 102/1/2
f 102/1/2 99/1/2 103/1/2
f 100/1/2 101/1/2 104/1/2
f 104/1/2 101/1/2 105/1/2
f 102/4/2 103/4/2 106/4/2
f 104/4/2 105/4/2 107/4/2
f 107/4/2 105/4/2 108/4/2
f 107/4/2 108/4/2 111/4/2
f 108/4/2 109/4/2 111/4/2
f 106/4/2 107/4/2 111/4/2
f 102/4/2 106/4/2 111/4/2
f 110/4/2 111/4/2 114/4/2
f 111/4/2 109/4/2 115/4/2
f 114/4/2 111/4/2 115/4/2
f 115/4/2 109/4/2 116/4/2
f 113/4/2 114/4/2 117/4/2
f 112/4/2 113/4/2 117/4/2
f 114/4/2 115/4/2 117/4/2
f 117/4/2 115/4/2 118/4/2
f 112/4/2 117/4/2 119/4/2
f 117/3/2 118/3/2 119/3/2
f 118/4/2 115/4/2 120/4/2
f 119/3/2 118/3/2 120/3/2
f 116/4/2 109/4/2 121/4/2
f 121/4/2 109/4/2 122/4/2
f 112/4/2 119/4/2 123/4/2
f 119/4/2 120/4/2 123/4/2
f 123/4/2 120/4/2 124/4/2
f 120/4/2 115/4/2 125/4/2
f 124/4/2 120/4/2 125/4/2
f 116/4/2 121/4/2 126/4/2
f 126/4/2 121/4/2 127/4/2
f 127/4/2 121/4/2 128/4/2
f 124/4/2 125/4/2 129/4/2
f 126/4/2 127/4/2 129/4/2
f 125/4/2 126/4/2 129/4/2
f 129/4/2 127/4/2 130/4/2
f 131/2/2 132/2/2 134/2/2
f 132/4/2 133/4/2 135/4/2
f 134/2/2 132/2/2 135/2/2
f 135/4/2 133/4/2 136/4/2
f 137/1/2 138/1/2 139/1/2
f 139/1/2 138/1/2 140/1/2
f 143/2/3 142/2/3 141/2/3
f 144/2/3 142/2/3 143/2/3
f 147/4/3 146/4/3 145/4/3
f 148/4/3 146/4/3 147/4/3
f 151/2/3 150/2/3 149/2/3
f 152/2/3 150/2/3 151/2/3
f 156/4/3 154/4/3 153/4/3
f 156/4/3 155/4/3 154/4/3
f 157/4/3 155/4/3 156/4/3
f 159/4/3 155/4/3 157/4/3
f 160/4/3 159/4/3 158/4/3
f 161/4/3 159/4/3 160/4/3
f 162/4/3 155/4/3 159/4/3
f 162/4/3 159/4/3 161/4/3
f 165/4/3 164/4/3 163/4/3
f 166/4/3 164/4/3 165/4/3
f 172/1/3 168/1/3 167/1/3
f 173/1/3 168/1/3 172/1/3
f 174/1/3 170/1/3 169/1/3
f 175/4/3 171/4/3 170/4/3
f 175/1/3 170/1/3 174/1/3
f 176/4/3 171/4/3 175/4/3
f 179/4/3 171/4/3 176/4/3
f 180/1/3 178/1/3 177/1/3
f 181/4/3 179/4/3 178/4/3
f 181/1/3 178/1/3 180/1/3
f 182/4/3 171/4/3 179/4/3
f 182/4/3 179/4/3 181/4/3
f 185/1/3 184/1/3 183/1/3
f 186/1/3 184/1/3 185/1/3
f 190/1/3 188/1/3 187/1/3
f 191/4/3 189/4/3 188/4/3
f 191/1/3 188/1/3 190/1/3
f 192/4/3 189/4/3 191/4/3
f 196/1/3 194/1/3 193/1/3
f 197/4/3 195/4/3 194/4/3
f 197/1/3 194/1/3 196/1/3
f 198/4/3 195/4/3 197/4/3
f 201/1/3 200/1/3 199/1/3
f 202/1/3 200/1/3 201/1/3
f 203/4/4 204/4/4 205/4/4
f 205/4/4 204/4/4 206/4/4
f 207/4/4 208/4/4 209/4/4
f 209/4/4 208/4/4 210/4/4
f 211/4/4 212/4/4 213/4/4
f 213/4/4 212/4/4 214/4/4
f 215/1/4 216/1/4 218/1/4
f 216/4/4 217/4/4 219/4/4
f 218/1/4 216/1/4 219/1/4
f 219/4/4 217/4/4 220/4/4
f 221/1/4 222/1/4 224/1/4
f 222/4/4 223/4/4 225/4/4
f 224/1/4 222/1/4 225/1/4
f 225/4/4 223/4/4 226/4/4
f 227/1/4 228/1/4 229/1/4
f 229/1/4 228/1/4 230/1/4
f 231/1/4 232/1/4 233/1/4
f 233/1/4 232/1/4 234/1/4
f 235/4/4 236/4/4 237/4/4
f 237/4/4 236/4/4 238/4/4
f 239/1/4 240/1/4 244/1/4
f 240/4/4 241/4/4 245/4/4
f 244/1/4 240/1/4 245/1/4
f 245/4/4 241/4/4 246/4/4
f 247/1/4 248/1/4 250/1/4
f 248/4/4 249/4/4 251/4/4
f 250/1/4 248/1/4 251/1/4
f 251/4/4 249/4/4 252/4/4
f 242/4/4 243/4/4 253/4/4
f 253/4/4 243/4/4 254/4/4
f 255/4/4 256/4/4 257/4/4
f 257/4/4 256/4/4 258/4/4
f 258/4/4 256/4/4 260/4/4
f 259/4/4 260/4/4 261/4/4
f 260/4/4 256/4/4 262/4/4
f 261/4/4 260/4/4 262/4/4
f 263/1/4 264/1/4 265/1/4
f 265/1/4 264/1/4 266/1/4
f 271/1/5 268/1/5 267/1/5
f 272/1/5 268/1/5 271/1/5
f 273/1/5 270/1/5 269/1/5
f 274/1/5 270/1/5 273/1/5
f 279/1/5 276/1/5 275/1/5
f 280/1/5 276/1/5 279/1/5
f 281/1/5 278/1/5 277/1/5
f 282/1/5 278/1/5 281/1/5
f 285/4/5 284/4/5 283/4/5
f 286/4/5 284/4/5 285/4/5
f 289/1/5 288/1/5 287/1/5
f 290/1/5 288/1/5 289/1/5
f 294/4/5 292/4/5 291/4/5
f 295/4/5 292/4/5 294/4/5
f 297/4/5 294/4/5 293/4/5
f 297/4/5 296/4/5 295/4/5
f 297/4/5 295/4/5 294/4/5
f 298/4/5 296/4/5 297/4/5
f 299/4/5 296/4/5 298/4/5
f 300/4/5 296/4/5 299/4/5
f 302/4/5 299/4/5 298/4/5
f 303/4/5 299/4/5 302/4/5
f 305/4/5 302/4/5 301/4/5
f 305/4/5 304/4/5 303/4/5
f 305/4/5 303/4/5 302/4/5
f 306/4/5 304/4/5 305/4/5
f 307/4/5 304/4/5 306/4/5
f 308/4/5 304/4/5 307/4/5
f 313/2/5 310/2/5 309/2/5
f 316/2/5 312/2/5 311/2/5
f 317/2/5 313/2/5 309/2/5
f 318/4/5 314/4/5 313/4/5
f 318/2/5 313/2/5 317/2/5
f 319/4/5 314/4/5 318/4/5
f 320/4/5 316/4/5 315/4/5
f 321/2/5 312/2/5 316/2/5
f 321/4/5 316/4/5 320/4/5
f 322/2/5 312/2/5 321/2/5
f 323/4/5 319/4/5 318/4/5
f 323/4/5 320/4/5 319/4/5
f 323/4/5 322/4/5 321/4/5
f 323/4/5 321/4/5 320/4/5
f 323/4/5 318/4/5 317/4/5
f 324/4/5 322/4/5 323/4/5
f 325/4/5 322/4/5 324/4/5
f 326/4/5 322/4/5 325/4/5
f 327/4/5 325/4/5 324/4/5
f 328/4/5 325/4/5 327/4/5
f 333/1/5 330/1/5 329/1/5
f 334/1/5 330/1/5 333/1/5
f 335/1/5 332/1/5 331/1/5
f 336/1/5 332/1/5 335/1/5
f 337/2/6 338/2/6 341/2/6
f 339/2/6 340/2/6 342/2/6
f 337/2/6 341/2/6 343/2/6
f 343/2/6 341/2/6 344/2/6
f 342/2/6 340/2/6 345/2/6
f 345/2/6 340/2/6 346/2/6
f 343/4/6 344/4/6 347/4/6
f 347/4/6 344/4/6 348/4/6
f 345/4/6 346/4/6 349/4/6
f 349/4/6 346/4/6 350/4/6
f 351/1/6 352/1/6 353/1/6
f 353/1/6 352/1/6 354/1/6
f 355/4/6 356/4/6 357/4/6
f 357/4/6 356/4/6 358/4/6
f 359/4/6 360/4/6 361/4/6
f 361/4/6 360/4/6 362/4/6
f 363/4/6 364/4/6 365/4/6
f 365/4/6 364/4/6 366/4/6
f 367/1/6 368/1/6 371/1/6
f 371/1/6 368/1/6 372/1/6
f 369/1/6 370/1/6 373/1/6
f 373/1/6 370/1/6 374/1/6
f 375/4/6 376/4/6 377/4/6
f 377/4/6 376/4/6 378/4/6
f 379/4/6 380/4/6 381/4/6
f 381/4/6 380/4/6 382/4/6
